<?xml version="1.0" standalone="no"?>
<!DOCTYPE svg PUBLIC "-//W3C//DTD SVG 1.1//EN" "http://www.w3.org/Graphics/SVG/1.1/DTD/svg11.dtd" >
<svg xmlns="http://www.w3.org/2000/svg">
<metadata>Generated by IcoMoon</metadata>
<defs>
<font id="icomoon" horiz-adv-x="1024">
<font-face units-per-em="1024" ascent="960" descent="-64" />
<missing-glyph horiz-adv-x="1024" />
<glyph unicode="&#x20;" d="" horiz-adv-x="512" />
<glyph unicode="&#x21;" d="M69.632 273.92h119.808v-133.12h-119.808v133.12zM51.2 861.696h156.672l-30.72-516.096h-95.232z" horiz-adv-x="262" />
<glyph unicode="&#x24;" d="M334.848 243.2h-278.528v106.496h459.776q120.832 0 120.832 49.152t-120.832 49.152h-227.328q-257.024 0-257.024 155.648t257.024 155.648h46.080v102.4h136.192v-102.4h278.528v-106.496h-460.8q-120.832 0-120.832-49.152t120.832-49.152h227.328q257.024 0 257.024-155.648t-257.024-155.648h-45.056v-102.4h-136.192v102.4z" horiz-adv-x="806" />
<glyph unicode="&#x2f;" d="M515.072 861.696l-397.312-720.896h-110.592l397.312 720.896h110.592z" horiz-adv-x="522" />
<glyph unicode="&#x30;" d="M596.992 247.296q120.832 0 120.832 47.104v411.648q0 49.152-120.832 49.152h-276.48q-120.832 0-120.832-49.152v-409.6q0-49.152 120.832-49.152h276.48zM63.488 706.048q0 155.648 257.024 155.648h276.48q257.024 0 257.024-155.648v-411.648q0-153.6-257.024-153.6h-276.48q-257.024 0-257.024 155.648v409.6z" horiz-adv-x="918" />
<glyph unicode="&#x31;" d="M334.848 140.8h-136.192v614.4l-50.176-52.224h-143.36l140.288 158.72h189.44v-720.896z" horiz-adv-x="402" />
<glyph unicode="&#x32;" d="M542.72 574.976q120.832 0 120.832 49.152v81.92q0 49.152-120.832 49.152h-449.536v106.496h449.536q257.024 0 257.024-155.648v-81.92q0-155.648-257.024-155.648h-227.328q-120.832 0-120.832-49.152v-172.032h605.184v-106.496h-741.376v278.528q0 155.648 257.024 155.648h227.328z" horiz-adv-x="858" />
<glyph unicode="&#x33;" d="M57.344 140.8v106.496h453.632q120.832 0 120.832 49.152v129.024q0 23.552-28.16 36.352t-86.528 12.8h-429.056v106.496h431.104q56.32 0 84.48 13.824t28.16 35.328v75.776q0 49.152-120.832 49.152h-453.632v106.496h453.632q257.024 0 257.024-155.648v-75.776q0-67.584-75.776-102.4 75.776-36.864 75.776-102.4v-129.024q0-155.648-257.024-155.648h-453.632z" horiz-adv-x="830" />
<glyph unicode="&#x34;" d="M16.384 349.696l380.928 512h147.456l-366.592-491.52h488.448v491.52h136.192v-491.52h75.776v-106.496h-75.776v-122.88h-136.192v122.88h-650.24v86.016z" horiz-adv-x="930" />
<glyph unicode="&#x35;" d="M198.656 755.2v-139.264h348.16q257.024 0 257.024-155.648v-165.888q0-153.6-257.024-153.6h-484.352v106.496h484.352q120.832 0 120.832 47.104v165.888q0 49.152-120.832 49.152h-484.352v352.256h728.064v-106.496h-591.872z" horiz-adv-x="864" />
<glyph unicode="&#x36;" d="M623.616 605.696q257.024 0 257.024-155.648v-155.648q0-153.6-257.024-153.6h-303.104q-257.024 0-257.024 155.648v409.6q0 155.648 257.024 155.648h525.312v-106.496h-525.312q-120.832 0-120.832-49.152v-100.352h423.936zM623.616 247.296q120.832 0 120.832 47.104v155.648q0 49.152-120.832 49.152h-423.936v-202.752q0-49.152 120.832-49.152h303.104z" horiz-adv-x="938" />
<glyph unicode="&#x37;" d="M33.792 861.696h806.912v-86.016l-480.256-634.88h-154.624l481.28 614.4h-653.312v106.496z" horiz-adv-x="860" />
<glyph unicode="&#x38;" d="M626.688 582.144q120.832 0 120.832 47.104v76.8q0 49.152-120.832 49.152h-307.2q-120.832 0-120.832-49.152v-74.752q0-49.152 120.832-49.152h307.2zM626.688 247.296q120.832 0 120.832 47.104v132.096q0 49.152-120.832 49.152h-307.2q-120.832 0-120.832-49.152v-130.048q0-49.152 120.832-49.152h307.2zM62.464 706.048q0 155.648 257.024 155.648h307.2q257.024 0 257.024-155.648v-76.8q0-66.56-59.392-102.4 59.392-35.84 59.392-100.352v-132.096q0-153.6-257.024-153.6h-307.2q-257.024 0-257.024 155.648v130.048q0 66.56 57.344 102.4-57.344 34.816-57.344 102.4v74.752z" horiz-adv-x="946" />
<glyph unicode="&#x39;" d="M56.32 569.856v138.24q0 153.6 257.024 153.6h303.104q257.024 0 257.024-155.648v-409.6q0-155.648-257.024-155.648h-525.312v106.496h525.312q120.832 0 120.832 49.152v117.76h-423.936q-257.024 0-257.024 155.648zM313.344 755.2q-120.832 0-120.832-47.104v-138.24q0-49.152 120.832-49.152h423.936v185.344q0 49.152-120.832 49.152h-303.104z" horiz-adv-x="938" />
<glyph unicode="&#x41;" d="M1054.72 140.8h-147.456l-377.856 588.8-384-588.8h-145.408l479.232 720.896h99.328z" />
<glyph unicode="&#x42;" d="M66.56 861.696h560.128q257.024 0 257.024-155.648v-68.608q0-90.112-79.872-124.928 79.872-36.864 79.872-112.64v-103.424q0-155.648-257.024-155.648h-560.128v720.896zM626.688 247.296q120.832 0 120.832 49.152v113.664q0 22.528-28.16 35.84t-85.504 13.312h-431.104v-211.968h423.936zM202.752 755.2v-189.44h433.152q55.296 0 83.456 13.824t28.16 35.328v91.136q0 49.152-120.832 49.152h-423.936z" horiz-adv-x="946" />
<glyph unicode="&#x43;" d="M869.376 247.296v-106.496h-549.888q-257.024 0-257.024 165.888v389.12q0 165.888 257.024 165.888h549.888v-106.496h-549.888q-120.832 0-120.832-59.392v-389.12q0-59.392 120.832-59.392h549.888z" horiz-adv-x="926" />
<glyph unicode="&#x44;" d="M66.56 861.696h629.76q297.984 0 297.984-196.608v-329.728q0-194.56-297.984-194.56h-629.76v720.896zM696.32 247.296q161.792 0 161.792 88.064v329.728q0 90.112-161.792 90.112h-493.568v-507.904h493.568z" horiz-adv-x="1058" />
<glyph unicode="&#x45;" d="M202.752 468.48v-221.184h605.184v-106.496h-741.376v720.896h741.376v-106.496h-605.184v-180.224h574.464v-106.496h-574.464z" horiz-adv-x="864" />
<glyph unicode="&#x46;" d="M202.752 437.76v-296.96h-136.192v720.896h741.376v-106.496h-605.184v-210.944h564.224v-106.496h-564.224z" horiz-adv-x="816" />
<glyph unicode="&#x47;" d="M759.808 534.016h136.192v-239.616q0-153.6-257.024-153.6h-318.464q-257.024 0-257.024 155.648v409.6q0 155.648 257.024 155.648h564.224v-106.496h-564.224q-120.832 0-120.832-49.152v-409.6q0-49.152 120.832-49.152h318.464q120.832 0 120.832 47.104v239.616z" horiz-adv-x="956" />
<glyph unicode="&#x48;" d="M792.576 468.48h-589.824v-327.68h-136.192v720.896h136.192v-286.72h589.824v286.72h136.192v-720.896h-136.192v327.68z" horiz-adv-x="996" />
<glyph unicode="&#x49;" d="M66.56 861.696h136.192v-720.896h-136.192v720.896z" horiz-adv-x="274" />
<glyph unicode="&#x4a;" d="M9.216 140.8v106.496h165.888q120.832 0 120.832 47.104v567.296h136.192v-567.296q0-153.6-257.024-153.6h-165.888z" horiz-adv-x="498" />
<glyph unicode="&#x4b;" d="M66.56 140.8v720.896h136.192v-292.864h235.52l267.264 292.864h161.792l-320.512-335.872 319.488-385.024h-159.744l-275.456 321.536h-228.352v-321.536h-136.192z" horiz-adv-x="880" />
<glyph unicode="&#x4c;" d="M47.104 861.696h137.216v-614.4h584.704v-106.496h-721.92v720.896z" horiz-adv-x="810" />
<glyph unicode="&#x4d;" d="M66.56 861.696h126.976l428.032-588.8 425.984 588.8h116.736v-720.896h-131.072v500.736l-361.472-500.736h-111.616l-362.496 499.712v-499.712h-131.072v720.896z" horiz-adv-x="1232" />
<glyph unicode="&#x4e;" d="M195.584 689.664v-548.864h-129.024v720.896h107.52l717.824-552.96v552.96h129.024v-720.896h-107.52z" horiz-adv-x="1090" />
<glyph unicode="&#x4f;" d="M734.208 247.296q120.832 0 120.832 47.104v411.648q0 49.152-120.832 49.152h-413.696q-120.832 0-120.832-49.152v-409.6q0-49.152 120.832-49.152h413.696zM63.488 706.048q0 155.648 257.024 155.648h413.696q257.024 0 257.024-155.648v-411.648q0-153.6-257.024-153.6h-413.696q-257.024 0-257.024 155.648v409.6z" horiz-adv-x="1050" />
<glyph unicode="&#x50;" d="M66.56 140.8v720.896h560.128q257.024 0 257.024-155.648v-143.36q0-155.648-257.024-155.648h-423.936v-266.24h-136.192zM202.752 755.2v-241.664h423.936q120.832 0 120.832 49.152v143.36q0 49.152-120.832 49.152h-423.936z" horiz-adv-x="900" />
<glyph unicode="&#x51;" d="M37.888 706.048q0 155.648 257.024 155.648h413.696q257.024 0 257.024-155.648v-411.648q0-121.856-162.816-147.456l91.136-165.888h-145.408l-86.016 159.744h-367.616q-257.024 0-257.024 155.648v409.6zM708.608 247.296q120.832 0 120.832 47.104v411.648q0 49.152-120.832 49.152h-413.696q-120.832 0-120.832-49.152v-409.6q0-49.152 120.832-49.152h413.696z" horiz-adv-x="1026" />
<glyph unicode="&#x52;" d="M66.56 140.8v720.896h570.368q257.024 0 257.024-155.648v-88.064q0-130.048-178.176-151.552l171.008-325.632h-145.408l-168.96 321.536h-369.664v-321.536h-136.192zM202.752 755.2v-186.368h434.176q120.832 0 120.832 49.152v88.064q0 49.152-120.832 49.152h-434.176z" horiz-adv-x="954" />
<glyph unicode="&#x53;" d="M696.32 578.048q257.024 0 257.024-155.648v-128q0-153.6-257.024-153.6h-615.424v106.496h615.424q120.832 0 120.832 47.104v128q0 49.152-120.832 49.152h-382.976q-257.024 0-257.024 155.648v78.848q0 155.648 257.024 155.648h594.944v-106.496h-594.944q-120.832 0-120.832-49.152v-78.848q0-49.152 120.832-49.152h382.976z" horiz-adv-x="1010" />
<glyph unicode="&#x54;" d="M23.552 861.696h881.664v-106.496h-367.616v-614.4h-136.192v614.4h-377.856v106.496z" horiz-adv-x="930" />
<glyph unicode="&#x55;" d="M704.512 247.296q120.832 0 120.832 77.824v536.576h136.192v-536.576q0-184.32-257.024-184.32h-382.976q-257.024 0-257.024 186.368v534.528h136.192v-534.528q0-79.872 120.832-79.872h382.976z" horiz-adv-x="1028" />
<glyph unicode="&#x56;" d="M578.56 140.8h-99.328l-479.232 720.896h148.48l382.976-588.8 378.88 588.8h144.384z" />
<glyph unicode="&#x57;" d="M1038.336 140.8h-102.4l-249.856 552.96-254.976-552.96h-99.328l-331.776 720.896h131.072l250.88-552.96 252.928 552.96h101.376l249.856-552.96 252.928 552.96h132.096z" horiz-adv-x="1372" />
<glyph unicode="&#x58;" d="M509.952 572.928l320.512 288.768h175.104l-408.576-355.328 410.624-365.568h-176.128l-321.536 287.744-319.488-287.744h-178.176l411.648 360.448-411.648 360.448h177.152z" horiz-adv-x="1020" />
<glyph unicode="&#x59;" d="M462.848 433.664l-462.848 428.032h174.080l356.352-329.728 356.352 329.728h172.032l-459.776-428.032v-292.864h-136.192v292.864z" horiz-adv-x="1060" />
<glyph unicode="&#x5a;" d="M66.56 861.696h968.704v-92.16l-732.16-512h732.16v-116.736h-968.704v92.16l729.088 512h-729.088v116.736z" horiz-adv-x="1064" />
<glyph unicode="&#x61;" d="M1054.72 140.8h-147.456l-377.856 588.8-384-588.8h-145.408l479.232 720.896h99.328z" />
<glyph unicode="&#x62;" d="M66.56 861.696h560.128q257.024 0 257.024-155.648v-68.608q0-90.112-79.872-124.928 79.872-36.864 79.872-112.64v-103.424q0-155.648-257.024-155.648h-560.128v720.896zM626.688 247.296q120.832 0 120.832 49.152v113.664q0 22.528-28.16 35.84t-85.504 13.312h-431.104v-211.968h423.936zM202.752 755.2v-189.44h433.152q55.296 0 83.456 13.824t28.16 35.328v91.136q0 49.152-120.832 49.152h-423.936z" horiz-adv-x="946" />
<glyph unicode="&#x63;" d="M869.376 247.296v-106.496h-549.888q-257.024 0-257.024 165.888v389.12q0 165.888 257.024 165.888h549.888v-106.496h-549.888q-120.832 0-120.832-59.392v-389.12q0-59.392 120.832-59.392h549.888z" horiz-adv-x="926" />
<glyph unicode="&#x64;" d="M66.56 861.696h629.76q297.984 0 297.984-196.608v-329.728q0-194.56-297.984-194.56h-629.76v720.896zM696.32 247.296q161.792 0 161.792 88.064v329.728q0 90.112-161.792 90.112h-493.568v-507.904h493.568z" horiz-adv-x="1058" />
<glyph unicode="&#x65;" d="M202.752 468.48v-221.184h605.184v-106.496h-741.376v720.896h741.376v-106.496h-605.184v-180.224h574.464v-106.496h-574.464z" horiz-adv-x="864" />
<glyph unicode="&#x66;" d="M202.752 437.76v-296.96h-136.192v720.896h741.376v-106.496h-605.184v-210.944h564.224v-106.496h-564.224z" horiz-adv-x="816" />
<glyph unicode="&#x67;" d="M759.808 534.016h136.192v-239.616q0-153.6-257.024-153.6h-318.464q-257.024 0-257.024 155.648v409.6q0 155.648 257.024 155.648h564.224v-106.496h-564.224q-120.832 0-120.832-49.152v-409.6q0-49.152 120.832-49.152h318.464q120.832 0 120.832 47.104v239.616z" horiz-adv-x="956" />
<glyph unicode="&#x68;" d="M792.576 468.48h-589.824v-327.68h-136.192v720.896h136.192v-286.72h589.824v286.72h136.192v-720.896h-136.192v327.68z" horiz-adv-x="996" />
<glyph unicode="&#x69;" d="M66.56 861.696h136.192v-720.896h-136.192v720.896z" horiz-adv-x="274" />
<glyph unicode="&#x6a;" d="M9.216 140.8v106.496h165.888q120.832 0 120.832 47.104v567.296h136.192v-567.296q0-153.6-257.024-153.6h-165.888z" horiz-adv-x="498" />
<glyph unicode="&#x6b;" d="M66.56 140.8v720.896h136.192v-292.864h235.52l267.264 292.864h161.792l-320.512-335.872 319.488-385.024h-159.744l-275.456 321.536h-228.352v-321.536h-136.192z" horiz-adv-x="880" />
<glyph unicode="&#x6c;" d="M47.104 861.696h137.216v-614.4h584.704v-106.496h-721.92v720.896z" horiz-adv-x="810" />
<glyph unicode="&#x6d;" d="M66.56 861.696h126.976l428.032-588.8 425.984 588.8h116.736v-720.896h-131.072v500.736l-361.472-500.736h-111.616l-362.496 499.712v-499.712h-131.072v720.896z" horiz-adv-x="1232" />
<glyph unicode="&#x6e;" d="M195.584 689.664v-548.864h-129.024v720.896h107.52l717.824-552.96v552.96h129.024v-720.896h-107.52z" horiz-adv-x="1090" />
<glyph unicode="&#x6f;" d="M734.208 247.296q120.832 0 120.832 47.104v411.648q0 49.152-120.832 49.152h-413.696q-120.832 0-120.832-49.152v-409.6q0-49.152 120.832-49.152h413.696zM63.488 706.048q0 155.648 257.024 155.648h413.696q257.024 0 257.024-155.648v-411.648q0-153.6-257.024-153.6h-413.696q-257.024 0-257.024 155.648v409.6z" horiz-adv-x="1050" />
<glyph unicode="&#x70;" d="M66.56 140.8v720.896h560.128q257.024 0 257.024-155.648v-143.36q0-155.648-257.024-155.648h-423.936v-266.24h-136.192zM202.752 755.2v-241.664h423.936q120.832 0 120.832 49.152v143.36q0 49.152-120.832 49.152h-423.936z" horiz-adv-x="900" />
<glyph unicode="&#x71;" d="M37.888 706.048q0 155.648 257.024 155.648h413.696q257.024 0 257.024-155.648v-411.648q0-121.856-162.816-147.456l91.136-165.888h-145.408l-86.016 159.744h-367.616q-257.024 0-257.024 155.648v409.6zM708.608 247.296q120.832 0 120.832 47.104v411.648q0 49.152-120.832 49.152h-413.696q-120.832 0-120.832-49.152v-409.6q0-49.152 120.832-49.152h413.696z" horiz-adv-x="1026" />
<glyph unicode="&#x72;" d="M66.56 140.8v720.896h570.368q257.024 0 257.024-155.648v-88.064q0-130.048-178.176-151.552l171.008-325.632h-145.408l-168.96 321.536h-369.664v-321.536h-136.192zM202.752 755.2v-186.368h434.176q120.832 0 120.832 49.152v88.064q0 49.152-120.832 49.152h-434.176z" horiz-adv-x="954" />
<glyph unicode="&#x73;" d="M696.32 578.048q257.024 0 257.024-155.648v-128q0-153.6-257.024-153.6h-615.424v106.496h615.424q120.832 0 120.832 47.104v128q0 49.152-120.832 49.152h-382.976q-257.024 0-257.024 155.648v78.848q0 155.648 257.024 155.648h594.944v-106.496h-594.944q-120.832 0-120.832-49.152v-78.848q0-49.152 120.832-49.152h382.976z" horiz-adv-x="1010" />
<glyph unicode="&#x74;" d="M23.552 861.696h881.664v-106.496h-367.616v-614.4h-136.192v614.4h-377.856v106.496z" horiz-adv-x="930" />
<glyph unicode="&#x75;" d="M704.512 247.296q120.832 0 120.832 77.824v536.576h136.192v-536.576q0-184.32-257.024-184.32h-382.976q-257.024 0-257.024 186.368v534.528h136.192v-534.528q0-79.872 120.832-79.872h382.976z" horiz-adv-x="1028" />
<glyph unicode="&#x76;" d="M578.56 140.8h-99.328l-479.232 720.896h148.48l382.976-588.8 378.88 588.8h144.384z" />
<glyph unicode="&#x77;" d="M1038.336 140.8h-102.4l-249.856 552.96-254.976-552.96h-99.328l-331.776 720.896h131.072l250.88-552.96 252.928 552.96h101.376l249.856-552.96 252.928 552.96h132.096z" horiz-adv-x="1372" />
<glyph unicode="&#x78;" d="M509.952 572.928l320.512 288.768h175.104l-408.576-355.328 410.624-365.568h-176.128l-321.536 287.744-319.488-287.744h-178.176l411.648 360.448-411.648 360.448h177.152z" horiz-adv-x="1020" />
<glyph unicode="&#x79;" d="M462.848 433.664l-462.848 428.032h174.080l356.352-329.728 356.352 329.728h172.032l-459.776-428.032v-292.864h-136.192v292.864z" horiz-adv-x="1060" />
<glyph unicode="&#x7a;" d="M66.56 861.696h968.704v-92.16l-732.16-512h732.16v-116.736h-968.704v92.16l729.088 512h-729.088v116.736z" horiz-adv-x="1064" />
<glyph unicode="&#xa5;" d="M528.384 466.432l-462.848 428.032h174.080l356.352-329.728 356.352 329.728h172.032l-459.776-428.032v-292.864h-136.192v292.864zM389.12 395.776h439.296v-106.496h-439.296v106.496zM389.12 621.056h439.296v-106.496h-439.296v106.496z" horiz-adv-x="1234" />
<glyph unicode="&#xab;" d="M256 526.848l245.76 183.296v-115.712l-148.48-109.568 148.48-112.64v-114.688l-245.76 185.344v83.968zM51.2 526.848l245.76 183.296v-115.712l-148.48-109.568 148.48-112.64v-114.688l-245.76 185.344v83.968z" horiz-adv-x="554" />
<glyph unicode="&#xbb;" d="M296.96 440.832l-245.76-183.296v115.712l147.456 109.568-147.456 112.64v114.688l245.76-185.344v-83.968zM501.76 440.832l-245.76-183.296v115.712l147.456 109.568-147.456 112.64v114.688l245.76-185.344v-83.968z" horiz-adv-x="554" />
<glyph unicode="&#xf6;" d="M734.208 247.296q120.832 0 120.832 47.104v411.648q0 49.152-120.832 49.152h-413.696q-120.832 0-120.832-49.152v-409.6q0-49.152 120.832-49.152h413.696zM63.488 706.048q0 155.648 257.024 155.648h413.696q257.024 0 257.024-155.648v-411.648q0-153.6-257.024-153.6h-413.696q-257.024 0-257.024 155.648v409.6zM603.136 1064.448h171.008v-147.456h-171.008v147.456zM274.432 1064.448h171.008v-147.456h-171.008v147.456z" horiz-adv-x="1050" />
<glyph unicode="&#xff;" d="M462.848 433.664l-462.848 428.032h174.080l356.352-329.728 356.352 329.728h172.032l-459.776-428.032v-292.864h-136.192v292.864zM608.256 1064.448h171.008v-147.456h-171.008v147.456zM279.552 1064.448h171.008v-147.456h-171.008v147.456z" horiz-adv-x="1060" />
<glyph unicode="&#x192;" d="M1061.888 140.8h-146.432l-132.096 204.8h-497.664l-132.096-204.8h-146.432l479.232 720.896h99.328zM356.352 452.096h358.4l-178.176 277.504z" horiz-adv-x="1068" />
<glyph unicode="&#x201c;" d="M178.176 719.36h-119.808v106.496l50.176 101.376h46.080l-28.672-74.752h52.224v-133.12zM371.712 719.36h-119.808v106.496l50.176 101.376h46.080l-28.672-74.752h52.224v-133.12z" horiz-adv-x="434" />
<glyph unicode="&#x201d;" d="M253.952 928.256h119.808v-106.496l-50.176-101.376h-46.080l28.672 74.752h-52.224v133.12zM60.416 928.256h119.808v-106.496l-50.176-101.376h-46.080l28.672 74.752h-52.224v133.12z" horiz-adv-x="434" />
<glyph unicode="&#x20ac;" d="M27.648 636.416h75.776v69.632q0 155.648 257.024 155.648h359.424l-49.152-106.496h-310.272q-120.832 0-120.832-49.152v-69.632h376.832l-44.032-96.256h-332.8v-77.824h296.96l-44.032-96.256h-252.928v-69.632q0-49.152 120.832-49.152h377.856v-106.496h-377.856q-257.024 0-257.024 155.648v69.632h-96.256l20.48 96.256h75.776v77.824h-96.256z" horiz-adv-x="782" />
<glyph unicode="&#xe600;" d="M1024 369.556l-512 397.426-512-397.428v162.038l512 397.426 512-397.428zM896 384v-384h-256v256h-256v-256h-256v384l384 288z" />
<glyph unicode="&#xe601;" d="M1024 352l-192 192v288h-128v-160l-192 192-512-512v-32h128v-320h320v192h128v-192h320v320h128z" />
<glyph unicode="&#xe602;" d="M512 896l-512-512 96-96 96 96 64-384h192v192h128v-192h192l64 384 96-96 96 96-512 512zM512 485.492c-49.988 0-90.512 40.52-90.512 90.508s40.524 90.51 90.512 90.51c49.984 0 90.51-40.524 90.51-90.51 0-49.988-40.526-90.508-90.51-90.508z" />
<glyph unicode="&#xe603;" d="M896 704v128h-896v-704c0-35.346 28.654-64 64-64h864c53.022 0 96 42.978 96 96v544h-128zM832 128h-768v640h768v-640zM128 640h640v-64h-640zM512 512h256v-64h-256zM512 384h256v-64h-256zM512 256h192v-64h-192zM128 512h320v-320h-320z" />
<glyph unicode="&#xe604;" d="M864 960c88.364 0 160-71.634 160-160 0-36.020-11.91-69.258-32-96l-64-64-224 224 64 64c26.742 20.090 59.978 32 96 32zM64 224l-64-288 288 64 592 592-224 224-592-592zM715.578 596.422l-448-448-55.156 55.156 448 448 55.156-55.156z" />
<glyph unicode="&#xe605;" d="M384 320l128 64 448 448-64 64-448-448-64-128zM289.3 92.902c-31.632 66.728-65.666 100.762-132.396 132.394l99.096 272.792 128 77.912 384 384h-192l-384-384-192-640 640 192 384 384v192l-384-384-77.912-128z" />
<glyph unicode="&#xe606;" d="M896 768h-768v-640h768v640zM1024 896v0-896h-1024v896h1024zM832 192h-640v128l192 320 263-320 185 128v-64zM640 608c0 53.020 42.98 96 96 96s96-42.98 96-96c0-53.020-42.98-96-96-96s-96 42.98-96 96z" />
<glyph unicode="&#xe607;" d="M0 832v-832h1024v832h-1024zM960 64h-896v704h896v-704zM704 608c0 53.020 42.98 96 96 96s96-42.98 96-96c0-53.020-42.98-96-96-96s-96 42.98-96 96zM896 128h-768l192 512 256-320 128 96z" />
<glyph unicode="&#xe608;" d="M128 704v-640h896v640h-896zM960 170.666l-128 213.334-145.066-120.888-110.934 184.888-384-320v512h768v-469.334zM256 480c0 53.020 42.98 96 96 96s96-42.98 96-96c0-53.020-42.98-96-96-96s-96 42.98-96 96zM896 832h-896v-640h64v576h832z" />
<glyph unicode="&#xe609;" d="M0 832v-768h1024v768h-1024zM192 128h-128v128h128v-128zM192 384h-128v128h128v-128zM192 640h-128v128h128v-128zM768 128h-512v640h512v-640zM960 128h-128v128h128v-128zM960 384h-128v128h128v-128zM960 640h-128v128h128v-128zM384 640v-384l256 192z" />
<glyph unicode="&#xe60a;" d="M896 832v-832h-672c-53.022 0-96 42.98-96 96s42.978 96 96 96h608v768h-640c-70.398 0-128-57.6-128-128v-768c0-70.4 57.602-128 128-128h768v896h-64zM256 128h576v-64h-576z" />
<glyph unicode="&#xe60b;" d="M576.234 670.73l242.712 81.432 203.584-606.784-242.712-81.432zM0 64h256v704h-256v-704zM64 640h128v-64h-128v64zM320 64h256v704h-256v-704zM384 640h128v-64h-128v64z" />
<glyph unicode="&#xe60c;" d="M512 960l-512-320h1024l-512 320zM800 576l32-64v-384h128v384l32 64h-192zM544 576l32-64v-384h128v384l32 64h-192zM288 576l32-64v-384h128v384l32 64h-192zM32 576l32-64v-384h128v384l32 64h-192zM32 64l-32-128h1024l-32 128h-960zM576 768c0-35.346-28.654-64-64-64s-64 28.654-64 64 28.654 64 64 64c35.346 0 64-28.654 64-64z" />
<glyph unicode="&#xe60d;" d="M864 960h-768c-52.8 0-96-43.2-96-96v-832c0-52.8 43.2-96 96-96h768c52.8 0 96 43.2 96 96v832c0 52.8-43.2 96-96 96zM832 64h-704v768h704v-768zM256 512h448v-64h-448zM256 384h448v-64h-448zM256 256h448v-64h-448zM256 640h448v-64h-448z" />
<glyph unicode="&#xe60e;" d="M864 960h-768c-52.8 0-96-43.2-96-96v-832c0-52.8 43.2-96 96-96h768c52.8 0 96 43.2 96 96v832c0 52.8-43.2 96-96 96zM832 64h-704v768h704v-768zM256 384h448v-64h-448zM256 256h448v-64h-448zM320 672c0 53.020 42.98 96 96 96s96-42.98 96-96c0-53.020-42.98-96-96-96s-96 42.98-96 96zM480 576h-128c-52.8 0-96-28.8-96-64v-64h320v64c0 35.2-43.2 64-96 64z" />
<glyph unicode="&#xe60f;" d="M1024 640l-512 256-512-256 512-256 512 256zM512 811.030l342.058-171.030-342.058-171.030-342.058 171.030 342.058 171.030zM921.444 499.278l102.556-51.278-512-256-512 256 102.556 51.278 409.444-204.722zM921.444 307.278l102.556-51.278-512-256-512 256 102.556 51.278 409.444-204.722z" />
<glyph unicode="&#xe610;" d="M0 640h1024l-64-640h-896l-64 640zM928 768l32-64h-896l64 128h352l32-64h416z" />
<glyph unicode="&#xe611;" d="M832 0l192 512h-832l-192-512zM128 576l-128-576v832h288l128-128h416v-128z" />
<glyph unicode="&#xe612;" d="M927.812 960h-288.562c-52.906 0-126.796-30.606-164.204-68.014l-446.99-446.99c-37.408-37.408-37.408-98.624 0-136.032l344.91-344.906c37.408-37.41 98.622-37.41 136.030 0l446.99 446.988c37.408 37.41 68.014 111.302 68.014 164.204v288.562c0 52.904-43.286 96.188-96.188 96.188zM800 640c-53.020 0-96 42.98-96 96s42.98 96 96 96 96-42.98 96-96-42.98-96-96-96z" />
<glyph unicode="&#xe613;" d="M992 896h-224c-52.8 0-126.546-30.546-163.882-67.882l-376.236-376.236c-37.334-37.334-37.334-98.428 0-135.764l280.236-280.234c37.334-37.336 98.428-37.336 135.764 0l376.234 376.234c37.338 37.336 67.884 111.082 67.884 163.882v224c0 52.8-43.2 96-96 96zM864 576c-53.020 0-96 42.98-96 96s42.98 96 96 96 96-42.98 96-96-42.98-96-96-96zM86.626 361.374l342.378-342.378c-36.264-19.16-82.462-13.538-112.886 16.888l-280.236 280.234c-37.334 37.336-37.334 98.43 0 135.764l376.236 376.236c37.336 37.336 111.082 67.882 163.882 67.882l-489.374-489.372c-12.444-12.446-12.444-32.808 0-45.254z" horiz-adv-x="1088" />
<glyph unicode="&#xe614;" d="M0 832h128v-640h-128zM192 832h64v-640h-64zM320 832h64v-640h-64zM512 832h64v-640h-64zM768 832h64v-640h-64zM960 832h64v-640h-64zM640 832h32v-640h-32zM448 832h32v-640h-32zM864 832h32v-640h-32zM0 128h64v-64h-64zM192 128h64v-64h-64zM320 128h64v-64h-64zM640 128h64v-64h-64zM960 128h64v-64h-64zM768 128h128v-64h-128zM448 128h128v-64h-128z" />
<glyph unicode="&#xe615;" d="M320 896h-256v-256h256v256zM384 960v0-384h-384v384h384zM128 832h128v-128h-128zM960 896h-256v-256h256v256zM1024 960v0-384h-384v384h384zM768 832h128v-128h-128zM320 256h-256v-256h256v256zM384 320v0-384h-384v384h384zM128 192h128v-128h-128zM448 960h64v-64h-64zM512 896h64v-64h-64zM448 832h64v-64h-64zM512 768h64v-64h-64zM448 704h64v-64h-64zM512 640h64v-64h-64zM448 576h64v-64h-64zM448 448h64v-64h-64zM512 384h64v-64h-64zM448 320h64v-64h-64zM512 256h64v-64h-64zM448 192h64v-64h-64zM512 128h64v-64h-64zM448 64h64v-64h-64zM512 0h64v-64h-64zM960 448h64v-64h-64zM64 448h64v-64h-64zM128 512h64v-64h-64zM0 512h64v-64h-64zM256 512h64v-64h-64zM320 448h64v-64h-64zM384 512h64v-64h-64zM576 448h64v-64h-64zM640 512h64v-64h-64zM704 448h64v-64h-64zM768 512h64v-64h-64zM832 448h64v-64h-64zM896 512h64v-64h-64zM960 320h64v-64h-64zM576 320h64v-64h-64zM640 384h64v-64h-64zM704 320h64v-64h-64zM832 320h64v-64h-64zM896 384h64v-64h-64zM960 192h64v-64h-64zM576 192h64v-64h-64zM640 256h64v-64h-64zM768 256h64v-64h-64zM832 192h64v-64h-64zM896 256h64v-64h-64zM960 64h64v-64h-64zM640 128h64v-64h-64zM704 64h64v-64h-64zM768 128h64v-64h-64zM832 64h64v-64h-64zM640 0h64v-64h-64zM768 0h64v-64h-64zM896 0h64v-64h-64z" />
<glyph unicode="&#xe616;" d="M128 32c0 53.020 42.98 96 96 96s96-42.98 96-96c0-53.020-42.98-96-96-96s-96 42.98-96 96zM768 32c0 53.020 42.98 96 96 96s96-42.98 96-96c0-53.020-42.98-96-96-96s-96 42.98-96 96zM960 448v384h-832c0 70.692-57.306 128-128 128v-64c35.29 0 64-28.71 64-64l48.074-412.054c-29.294-23.458-48.074-59.5-48.074-99.946 0-70.694 57.308-128 128-128h768v64h-768c-35.346 0-64 28.654-64 64 0 0.22 0.014 0.436 0.016 0.656l831.984 127.344z" />
<glyph unicode="&#xe617;" d="M847.218 384c35.2 0 71.912 27.692 81.582 61.538l92.836 324.926c9.67 33.844-11.218 61.536-46.418 61.536h-655.218c0 70.692-57.308 128-128 128h-192v-128h192v-544c0-53.020 42.98-96 96-96h608c35.346 0 64 28.654 64 64s-28.654 64-64 64h-576v64h527.218zM320 704h578.806l-54.858-192h-523.948v192zM384 16c0-44-36-80-80-80h-32c-44 0-80 36-80 80v32c0 44 36 80 80 80h32c44 0 80-36 80-80v-32zM960 16c0-44-36-80-80-80h-32c-44 0-80 36-80 80v32c0 44 36 80 80 80h32c44 0 80-36 80-80v-32z" />
<glyph unicode="&#xe618;" d="M977.582 765.538c-33.984 9.708-69.41-9.97-79.12-43.956l-5.022-17.582h-596.942l-8.992 71.938c-4.004 32.028-31.23 56.062-63.506 56.062h-160c-35.346 0-64-28.654-64-64s28.654-64 64-64h103.502l56.992-455.938c4.004-32.026 31.23-56.062 63.506-56.062h544c28.574 0 53.688 18.944 61.538 46.418l128 448c9.71 33.986-9.97 69.41-43.956 79.12zM512 448v64h127.996v-64h-127.996zM639.996 384v-64h-127.996v64h127.996zM512 576v64h127.996v-64h-127.996zM304.498 640h143.502v-64h-135.502l-8 64zM320.498 512h127.502v-64h-119.502l-8 64zM336.498 384h111.502v-64h-103.502l-8 64zM783.724 320h-79.728v64h98.014l-18.286-64zM820.296 448h-116.3v64h134.586l-18.286-64zM856.868 576h-152.872v64h171.158l-18.286-64zM256 32c0 53.020 42.98 96 96 96s96-42.98 96-96c0-53.020-42.98-96-96-96s-96 42.98-96 96zM640 32c0 53.020 42.98 96 96 96s96-42.98 96-96c0-53.020-42.98-96-96-96s-96 42.98-96 96z" />
<glyph unicode="&#xe619;" d="M480 896c-265.096 0-480-214.904-480-480s214.904-480 480-480c265.098 0 480 214.902 480 480s-214.902 480-480 480zM480 32c-212.078 0-384 171.922-384 384s171.922 384 384 384c212.078 0 384-171.922 384-384s-171.922-384-384-384zM512 448v128h128v64h-128v64h-64v-64h-128v-256h128v-128h-128v-64h128v-64h64v64h128.002l-0.002 256h-128zM448 448h-64v128h64v-128zM576.002 256h-64.002v128h64.002v-128z" />
<glyph unicode="&#xe61a;" d="M928 832h-832c-52.8 0-96-43.2-96-96v-576c0-52.8 43.2-96 96-96h832c52.8 0 96 43.2 96 96v576c0 52.8-43.2 96-96 96zM96 768h832c17.346 0 32-14.654 32-32v-96h-896v96c0 17.346 14.654 32 32 32zM928 128h-832c-17.346 0-32 14.654-32 32v288h896v-288c0-17.346-14.654-32-32-32zM128 320h64v-128h-64zM256 320h64v-128h-64zM384 320h64v-128h-64z" />
<glyph unicode="&#xe61b;" d="M704 320c-64-64-64-128-128-128s-128 64-192 128-128 128-128 192 64 64 128 128-128 256-192 256-192-192-192-192c0-128 131.5-387.5 256-512s384-256 512-256c0 0 192 128 192 192s-192 256-256 192z" />
<glyph unicode="&#xe61c;" d="M1017.378 384.006c8.004-55.482 13.216-131.392-11.664-160.446-41.142-48.044-301.712-48.044-301.712 48.042 0 48.398 42.856 80.134 1.712 128.178-40.472 47.262-113.026 48.030-193.714 48.042-80.686-0.012-153.242-0.78-193.714-48.042-41.142-48.046 1.714-79.78 1.714-128.178 0-96.086-260.57-96.086-301.714-48.044-24.878 29.054-19.668 104.964-11.662 160.446 6.16 37.038 21.724 76.996 71.548 127.994 0 0.002 0.002 0.002 0.002 0.004 74.738 69.742 187.846 126.738 429.826 127.968v0.030c1.344 0 2.664-0.010 4-0.014 1.338 0.004 2.656 0.014 4 0.014v-0.028c241.98-1.23 355.088-58.226 429.826-127.968 0.002-0.002 0.002-0.004 0.002-0.004 49.824-50.996 65.39-90.954 71.55-127.994z" />
<glyph unicode="&#xe61d;" d="M960 704c35.346 0 64 28.654 64 64v128h-128v64h-832c-35.2 0-64-28.798-64-64v-896c0-35.2 28.796-64 64-64h832v256h64c35.346 0 64 28.654 64 64v128h-128v64h64c35.346 0 64 28.654 64 64v128h-128v64h64zM576 703.67c70.51 0 127.67-57.16 127.67-127.67s-57.16-127.67-127.67-127.67c-70.51 0-127.67 57.16-127.67 127.67s57.16 127.67 127.67 127.67zM256 0h-64v896h64v-896zM768 192h-384v64c0 70.694 57.308 128 128 128v0h128c70.696 0 128-57.306 128-128v-64z" />
<glyph unicode="&#xe61e;" d="M898.36 896h-770.36v-128h-93.64c-17.6 0-34.36-12.528-34.36-30.128v-64c0-17.6 16.76-33.872 34.36-33.872h93.64v-64h-93.64c-17.6 0-34.36-12.528-34.36-30.128v-64c0-17.6 16.76-33.872 34.36-33.872h93.64v-64h-93.64c-17.6 0-34.36-12.528-34.36-30.128v-64c0-17.598 16.76-33.872 34.36-33.872h93.64v-64h-93.64c-17.6 0-34.36-12.528-34.36-30.128v-64c0-17.6 16.76-33.872 34.36-33.872h93.64v-128h770.36c35.348 0 61.64 30.526 61.64 65.872v832c0 35.346-26.292 62.128-61.64 62.128zM320 0h-128v64h34.36c17.6 0 29.64 16.272 29.64 33.872v64c0 17.602-12.042 30.128-29.64 30.128h-34.36v64h34.36c17.6 0 29.64 16.272 29.64 33.872v64c0 17.602-12.042 30.128-29.64 30.128h-34.36v64h34.36c17.6 0 29.64 16.272 29.64 33.872v64c0 17.602-12.042 30.128-29.64 30.128h-34.36v64h34.36c17.6 0 29.64 16.272 29.64 33.872v64c0 17.602-12.040 30.128-29.64 30.128h-34.36v64h128v-832z" />
<glyph unicode="&#xe61f;" d="M928 832h-832c-52.8 0-96-43.2-96-96v-640c0-52.8 43.2-96 96-96h832c52.8 0 96 43.2 96 96v640c0 52.8-43.2 96-96 96zM398.74 409.628l-270.74-210.892v501.642l270.74-290.75zM176.38 704h671.24l-335.62-252-335.62 252zM409.288 398.302l102.712-110.302 102.71 110.302 210.554-270.302h-626.528l210.552 270.302zM625.26 409.628l270.74 290.75v-501.642l-270.74 210.892z" />
<glyph unicode="&#xe620;" d="M512 960c-176.732 0-320-143.268-320-320 0-320 320-704 320-704s320 384 320 704c0 176.732-143.27 320-320 320zM512 448c-106.040 0-192 85.96-192 192s85.96 192 192 192 192-85.96 192-192-85.96-192-192-192z" />
<glyph unicode="&#xe621;" d="M512 960c-176.732 0-320-143.268-320-320 0-320 320-704 320-704s320 384 320 704c0 176.732-143.27 320-320 320zM512 444c-108.248 0-196 87.752-196 196s87.752 196 196 196 196-87.752 196-196-87.752-196-196-196zM388 640c0 68.482 55.516 124 124 124s124-55.518 124-124c0-68.482-55.518-124-124-124s-124 55.518-124 124z" />
<glyph unicode="&#xe622;" d="M576 410.51l109.254-109.256-90.508-90.508-146.746 146.744v218.51h128zM832 896c106.040 0 192-85.96 192-192 0-64.984-32.29-122.418-81.692-157.158-46.59 123.044-144.422 220.876-267.466 267.466 34.74 49.402 92.176 81.692 157.158 81.692zM349.158 814.308c-123.044-46.59-220.876-144.422-267.466-267.466-49.402 34.74-81.692 92.174-81.692 157.158 0 106.040 85.96 192 192 192 64.984 0 122.418-32.29 157.158-81.692zM512 768c-212.078 0-384-171.922-384-384 0-92.674 32.832-177.678 87.494-244.020l-23.494-203.98h64l63.992 115.388c56.484-32.678 122.058-51.388 192.008-51.388 69.948 0 135.52 18.71 192.004 51.386l-0.004-0.004 64-115.382h64l-23.502 203.968c54.668 66.346 87.502 151.352 87.502 244.032 0 212.078-171.922 384-384 384zM512 128c-141.384 0-256 114.616-256 256s114.616 256 256 256 256-114.616 256-256-114.616-256-256-256z" />
<glyph unicode="&#xe623;" d="M512 832c-247.424 0-448-200.576-448-448s200.576-448 448-448 448 200.576 448 448-200.576 448-448 448zM512 24c-198.824 0-360 161.178-360 360 0 198.824 161.176 360 360 360 198.822 0 360-161.176 360-360 0-198.822-161.178-360-360-360zM934.784 672.826c16.042 28.052 25.216 60.542 25.216 95.174 0 106.040-85.96 192-192 192-61.818 0-116.802-29.222-151.92-74.596 131.884-27.236 245.206-105.198 318.704-212.578zM407.92 885.404c-35.116 45.374-90.102 74.596-151.92 74.596-106.040 0-192-85.96-192-192 0-34.632 9.174-67.122 25.216-95.174 73.5 107.38 186.822 185.342 318.704 212.578zM448 640h64v-320h-64v320zM512 384h192v-64h-192v64z" />
<glyph unicode="&#xe624;" d="M1024 128v768h-1024v-768h448v-64h-192v-64h512v64h-192v64h448zM128 768h768v-512h-768v512z" />
<glyph unicode="&#xe625;" d="M896 256v512c0 35.2-28.8 64-64 64h-640c-35.2 0-64-28.8-64-64v-512h-128v-192h1024v192h-128zM640 128h-256v64h256v-64zM832 256h-640v511.886c0.034 0.040 0.076 0.082 0.114 0.114h639.77c0.040-0.034 0.082-0.076 0.116-0.116v-511.884z" />
<glyph unicode="&#xe626;" d="M736 960h-448c-52.8 0-96-43.2-96-96v-832c0-52.8 43.2-96 96-96h448c52.8 0 96 43.2 96 96v832c0 52.8-43.2 96-96 96zM384 912h256v-32h-256v32zM512 0c-35.346 0-64 28.654-64 64s28.654 64 64 64 64-28.654 64-64-28.654-64-64-64zM768 192h-512v640h512v-640z" />
<glyph unicode="&#xe627;" d="M768 960h-576c-35.2 0-64-28.798-64-64v-896c0-35.2 28.798-64 64-64h576c35.2 0 64 28.8 64 64v896c0 35.202-28.8 64-64 64zM480-17.782c-27.492 0-49.782 22.29-49.782 49.782s22.29 49.782 49.782 49.782 49.782-22.29 49.782-49.782-22.29-49.782-49.782-49.782zM768 128h-576v704h576v-704z" />
<glyph unicode="&#xe628;" d="M800 960h-640c-52.8 0-96-43.2-96-96v-832c0-52.8 43.2-96 96-96h640c52.8 0 96 43.2 96 96v832c0 52.8-43.2 96-96 96zM480-32c-17.672 0-32 14.326-32 32s14.328 32 32 32 32-14.326 32-32-14.328-32-32-32zM768 64h-576v768h576v-768z" />
<glyph unicode="&#xe629;" d="M896 960h-896v-1024h1024v896l-128 128zM512 832h128v-256h-128v256zM896 64h-768v768h64v-320h576v320h74.978l53.022-53.018v-714.982z" />
<glyph unicode="&#xe62a;" d="M512 896c282.77 0 512-186.25 512-416s-229.23-416-512-416c-27.156 0-53.81 1.734-79.824 5.044-109.978-109.978-241.25-129.7-368.176-132.596v26.916c68.536 33.578 128 94.74 128 164.636 0 9.754-0.758 19.33-2.164 28.696-115.796 76.264-189.836 192.754-189.836 323.304 0 229.75 229.23 416 512 416z" />
<glyph unicode="&#xe62b;" d="M1088 58.834c0-45.5 26.028-84.908 64-104.184v-15.938c-10.626-1.454-21.472-2.224-32.5-2.224-68.008 0-129.348 28.528-172.722 74.264-26.222-6.982-54.002-10.752-82.778-10.752-159.058 0-288 114.616-288 256s128.942 256 288 256c159.058 0 288-114.616 288-256 0-55.348-19.764-106.592-53.356-148.466-6.824-14.824-10.644-31.312-10.644-48.7zM512 960c278.458 0 504.992-180.614 511.836-405.52-49.182 21.92-103.586 33.52-159.836 33.52-95.56 0-185.816-33.446-254.138-94.178-70.846-62.972-109.862-147.434-109.862-237.822 0-44.672 9.544-87.888 27.736-127.788-5.228-0.126-10.468-0.212-15.736-0.212-27.156 0-53.81 1.734-79.824 5.044-109.978-109.978-241.25-129.7-368.176-132.596v26.916c68.536 33.578 128 94.74 128 164.636 0 9.754-0.758 19.33-2.164 28.696-115.796 76.264-189.836 192.754-189.836 323.304 0 229.75 229.23 416 512 416z" horiz-adv-x="1152" />
<glyph unicode="&#xe62c;" d="M480 960v0c265.096 0 480-173.914 480-388.448s-214.904-388.448-480-388.448c-25.458 0-50.446 1.62-74.834 4.71-103.106-102.694-222.172-121.108-341.166-123.814v25.134c64.252 31.354 116 88.466 116 153.734 0 9.106-0.712 18.048-2.030 26.794-108.558 71.214-177.97 179.988-177.97 301.89 0 214.534 214.904 388.448 480 388.448zM996 89.314c0-55.942 36.314-104.898 92-131.772v-21.542c-103.126 2.318-197.786 18.102-287.142 106.126-21.14-2.65-42.794-4.040-64.858-4.040-95.47 0-183.408 25.758-253.614 69.040 144.674 0.506 281.26 46.854 384.834 130.672 52.208 42.252 93.394 91.826 122.414 147.348 30.766 58.866 46.366 121.582 46.366 186.406 0 10.448-0.45 20.836-1.258 31.168 72.57-59.934 117.258-141.622 117.258-231.676 0-104.488-60.158-197.722-154.24-258.764-1.142-7.496-1.76-15.16-1.76-22.966z" horiz-adv-x="1152" />
<glyph unicode="&#xe62d;" d="M512 768c-54.932 0-107.988-8.662-157.694-25.742-46.712-16.054-88.306-38.744-123.628-67.444-66.214-53.798-102.678-122.984-102.678-194.814 0-40.298 11.188-79.378 33.252-116.152 22.752-37.92 56.982-72.586 98.988-100.252 30.356-19.992 50.78-51.948 56.176-87.894 1.8-11.984 2.928-24.088 3.37-36.124 7.47 6.194 14.75 12.846 21.88 19.976 24.154 24.152 56.78 37.49 90.502 37.49 5.368 0 10.762-0.336 16.156-1.024 20.974-2.666 42.398-4.020 63.676-4.020 54.934 0 107.988 8.66 157.694 25.742 46.712 16.054 88.306 38.744 123.628 67.444 66.214 53.796 102.678 122.984 102.678 194.814s-36.464 141.016-102.678 194.814c-35.322 28.698-76.916 51.39-123.628 67.444-49.706 17.080-102.76 25.742-157.694 25.742zM512 896v0c282.77 0 512-186.25 512-416s-229.23-416-512-416c-27.156 0-53.81 1.734-79.824 5.044-109.978-109.978-241.25-129.7-368.176-132.596v26.916c68.536 33.578 128 94.74 128 164.636 0 9.754-0.758 19.33-2.164 28.696-115.796 76.264-189.836 192.754-189.836 323.304 0 229.75 229.23 416 512 416z" />
<glyph unicode="&#xe62e;" d="M1088 58.834c0-45.5 26.028-84.908 64-104.184v-15.938c-10.626-1.454-21.472-2.224-32.5-2.224-68.008 0-129.348 28.528-172.722 74.264-26.222-6.982-54.002-10.752-82.778-10.752-159.058 0-288 114.616-288 256s128.942 256 288 256c159.058 0 288-114.616 288-256 0-55.348-19.764-106.592-53.356-148.466-6.824-14.824-10.644-31.312-10.644-48.7zM230.678 738.814c-66.214-53.798-102.678-122.984-102.678-194.814 0-40.298 11.188-79.378 33.252-116.15 22.752-37.92 56.982-72.586 98.988-100.252 30.356-19.992 50.78-51.948 56.176-87.894 1.8-11.984 2.928-24.088 3.37-36.124 7.47 6.194 14.75 12.846 21.88 19.976 24.154 24.152 56.78 37.49 90.502 37.49 5.368 0 10.762-0.336 16.156-1.024 20.948-2.662 42.344-4.016 63.594-4.020v-128c-27.128 0.002-53.754 1.738-79.742 5.042-109.978-109.978-241.25-129.7-368.176-132.596v26.916c68.536 33.578 128 94.74 128 164.636 0 9.754-0.758 19.33-2.164 28.696-115.796 76.264-189.836 192.754-189.836 323.304 0 229.75 229.23 416 512 416 278.458 0 504.992-180.614 511.836-405.52-41.096 18.316-85.84 29.422-132.262 32.578-11.53 56.068-45.402 108.816-98.252 151.756-35.322 28.698-76.916 51.39-123.628 67.444-49.706 17.080-102.76 25.742-157.694 25.742s-107.988-8.662-157.694-25.742c-46.712-16.054-88.306-38.744-123.628-67.444z" horiz-adv-x="1152" />
<glyph unicode="&#xe62f;" d="M480 832c-50.666 0-99.582-7.95-145.386-23.628-42.924-14.694-81.114-35.436-113.502-61.646-60.044-48.59-93.112-110.802-93.112-175.174 0-35.99 10.066-70.948 29.92-103.898 20.686-34.34 51.898-65.794 90.26-90.958 30.44-19.968 50.936-51.952 56.362-87.95 0.902-5.99 1.63-12.006 2.18-18.032 2.722 2.52 5.424 5.114 8.114 7.794 24.138 24.040 56.688 37.312 90.322 37.312 5.348 0 10.718-0.336 16.094-1.018 19.36-2.452 39.124-3.696 58.748-3.696 50.666 0 99.58 7.948 145.384 23.628 42.926 14.692 81.116 35.434 113.504 61.644 60.046 48.59 93.112 110.802 93.112 175.174s-33.066 126.582-93.112 175.174c-32.388 26.212-70.578 46.952-113.504 61.646-45.804 15.678-94.718 23.628-145.384 23.628zM480 960v0c265.096 0 480-173.914 480-388.448s-214.904-388.448-480-388.448c-25.458 0-50.446 1.62-74.834 4.71-103.106-102.694-222.172-121.108-341.166-123.814v25.134c64.252 31.354 116 88.466 116 153.734 0 9.106-0.712 18.048-2.030 26.794-108.558 71.214-177.97 179.988-177.97 301.89 0 214.534 214.904 388.448 480 388.448zM996 89.314c0-55.942 36.314-104.898 92-131.772v-21.542c-103.126 2.318-197.786 18.102-287.142 106.126-21.14-2.65-42.794-4.040-64.858-4.040-95.47 0-183.408 25.758-253.614 69.040 144.674 0.506 281.26 46.854 384.834 130.672 52.208 42.252 93.394 91.826 122.414 147.348 30.766 58.866 46.366 121.582 46.366 186.406 0 10.448-0.45 20.836-1.258 31.168 72.57-59.934 117.258-141.622 117.258-231.676 0-104.488-60.158-197.722-154.24-258.764-1.142-7.496-1.76-15.16-1.76-22.966z" horiz-adv-x="1152" />
<glyph unicode="&#xe630;" d="M622.826 257.264c-22.11 3.518-22.614 64.314-22.614 64.314s64.968 64.316 79.128 150.802c38.090 0 61.618 91.946 23.522 124.296 1.59 34.054 48.96 267.324-190.862 267.324s-192.45-233.27-190.864-267.324c-38.094-32.35-14.57-124.296 23.522-124.296 14.158-86.486 79.128-150.802 79.128-150.802s-0.504-60.796-22.614-64.314c-71.22-11.332-337.172-128.634-337.172-257.264h896c0 128.63-265.952 245.932-337.174 257.264z" />
<glyph unicode="&#xe631;" d="M734.994 154.626c-18.952 2.988-19.384 54.654-19.384 54.654s55.688 54.656 67.824 128.152c32.652 0 52.814 78.138 20.164 105.628 1.362 28.94 41.968 227.176-163.598 227.176s-164.958-198.236-163.598-227.176c-32.654-27.49-12.488-105.628 20.162-105.628 12.134-73.496 67.826-128.152 67.826-128.152s-0.432-51.666-19.384-54.654c-61.048-9.632-289.006-109.316-289.006-218.626h768c0 109.31-227.958 208.994-289.006 218.626zM344.054 137.19c44.094 27.15 97.626 52.308 141.538 67.424-15.752 22.432-33.294 52.936-44.33 89.062-15.406 12.566-27.944 30.532-35.998 52.602-8.066 22.104-11.122 46.852-8.608 69.684 1.804 16.392 6.478 31.666 13.65 45.088-4.35 46.586-7.414 138.034 52.448 204.732 23.214 25.866 52.556 44.46 87.7 55.686-6.274 64.76-39.16 140.77-166.454 140.77-205.564 0-164.958-198.236-163.598-227.176-32.654-27.49-12.488-105.628 20.162-105.628 12.134-73.496 67.826-128.152 67.826-128.152s-0.432-51.666-19.384-54.654c-61.048-9.634-289.006-109.318-289.006-218.628h329.596c4.71 3.074 9.506 6.14 14.458 9.19z" />
<glyph unicode="&#xe632;" d="M848-64h-672c-26.51 0-48 21.49-48 48 0 68.862 29.068 152.204 77.758 222.942 40.692 59.118 90.684 103.62 144.678 129.61-23.798 21.644-44.294 48.026-60.508 78.122-26 48.262-39.746 104.048-39.746 161.328 0 79.606 26.204 154.822 73.786 211.79 49.664 59.46 116.442 92.208 188.032 92.208s138.368-32.748 188.034-92.21c47.58-56.968 73.786-132.182 73.786-211.79 0-57.28-13.744-113.066-39.744-161.328-16.214-30.096-36.71-56.478-60.51-78.122 53.994-25.99 103.986-70.492 144.678-129.61 48.688-70.736 77.756-154.078 77.756-222.94 0-26.51-21.49-48-48-48zM230.074 32h563.852c-9.226 39.34-28.52 82.384-54.762 120.51-41.454 60.226-93.176 99.622-145.638 110.926-22.106 4.764-37.888 24.31-37.888 46.924v34.292c0 17.26 9.266 33.19 24.27 41.722 59.478 33.832 97.912 108.266 97.912 189.626 0 114.692-74.384 208-165.818 208s-165.818-93.308-165.818-208c0-81.36 38.434-155.792 97.914-189.626 15.002-8.534 24.268-24.462 24.268-41.722v-34.292c0-22.614-15.784-42.16-37.888-46.924-52.462-11.304-104.184-50.7-145.64-110.926-26.246-38.126-45.536-81.17-54.764-120.51z" />
<glyph unicode="&#xe633;" d="M976-64h-672c-26.51 0-48 21.49-48 48 0 68.862 29.068 152.204 77.758 222.942 40.692 59.118 90.684 103.62 144.678 129.61-23.798 21.644-44.294 48.026-60.508 78.122-26 48.262-39.746 104.048-39.746 161.328 0 79.606 26.204 154.822 73.786 211.79 49.664 59.46 116.442 92.208 188.032 92.208s138.368-32.748 188.034-92.21c47.58-56.968 73.786-132.182 73.786-211.79 0-57.28-13.744-113.066-39.744-161.328-16.214-30.096-36.71-56.478-60.51-78.122 53.994-25.99 103.986-70.492 144.678-129.61 48.688-70.736 77.756-154.078 77.756-222.94 0-26.51-21.49-48-48-48zM358.074 32h563.852c-9.226 39.34-28.52 82.384-54.762 120.51-41.454 60.226-93.176 99.622-145.638 110.926-22.106 4.764-37.888 24.31-37.888 46.924v34.292c0 17.26 9.266 33.19 24.27 41.722 59.478 33.832 97.912 108.266 97.912 189.626 0 114.692-74.384 208-165.818 208s-165.818-93.308-165.818-208c0-81.36 38.434-155.792 97.914-189.626 15.002-8.534 24.268-24.462 24.268-41.722v-34.292c0-22.614-15.784-42.16-37.888-46.924-52.462-11.304-104.184-50.7-145.64-110.926-26.246-38.126-45.536-81.17-54.764-120.51zM197.114 96h-95.040c9.228 39.34 28.518 82.384 54.76 120.51 41.456 60.226 93.178 99.622 145.64 110.926 22.106 4.764 37.888 24.31 37.888 46.924v34.292c0 17.26-9.266 33.19-24.268 41.722-59.48 33.834-97.914 108.266-97.914 189.626 0 114.692 74.384 208 165.818 208 6.254 0 12.426-0.452 18.502-1.302 26.358 29.334 56.234 53.174 88.642 71.004-33.192 17.232-69.5 26.298-107.142 26.298-71.59 0-138.368-32.748-188.034-92.21-47.58-56.968-73.784-132.184-73.784-211.79 0-57.28 13.744-113.066 39.746-161.328 16.214-30.096 36.71-56.476 60.508-78.122-53.994-25.99-103.986-70.492-144.678-129.61-48.69-70.736-77.758-154.078-77.758-222.94 0-26.51 21.49-48 48-48h132.386c1.476 31.026 7.198 63.412 16.728 96z" />
<glyph unicode="&#xe634;" d="M256 640c0 141.386 114.616 256 256 256s256-114.616 256-256c0-141.386-114.616-256-256-256s-256 114.616-256 256zM768 320h-512c-141.384 0-256-114.618-256-256v-64h1024v64c0 141.382-114.616 256-256 256z" />
<glyph unicode="&#xe635;" d="M320 768c0 106.038 85.962 192 192 192s192-85.962 192-192c0-106.038-85.962-192-192-192s-192 85.962-192 192zM768.078 512h-35.424l-199.104-404.244 74.45 372.244-96 96-96-96 74.45-372.244-199.102 404.244h-35.424c-127.924 0-127.924-85.986-127.924-192v-320h768v320c0 106.014 0 192-127.922 192z" />
<glyph unicode="&#xe636;" d="M992.262 88.604l-242.552 206.294c-25.074 22.566-51.89 32.926-73.552 31.926 57.256 67.068 91.842 154.078 91.842 249.176 0 212.078-171.922 384-384 384s-384-171.922-384-384c0-212.078 171.922-384 384-384 95.098 0 182.108 34.586 249.176 91.844-1-21.662 9.36-48.478 31.926-73.552l206.294-242.552c35.322-39.246 93.022-42.554 128.22-7.356s31.892 92.898-7.354 128.22zM384 320c-141.384 0-256 114.616-256 256s114.616 256 256 256 256-114.616 256-256-114.614-256-256-256z" />
<glyph unicode="&#xe637;" d="M992.262 88.604l-242.552 206.294c-25.074 22.566-51.89 32.926-73.552 31.926 57.256 67.068 91.842 154.078 91.842 249.176 0 212.078-171.922 384-384 384s-384-171.922-384-384c0-212.078 171.922-384 384-384 95.098 0 182.108 34.586 249.176 91.844-1-21.662 9.36-48.478 31.926-73.552l206.294-242.552c35.322-39.246 93.022-42.554 128.22-7.356s31.892 92.898-7.354 128.22zM384 320c-141.384 0-256 114.616-256 256s114.616 256 256 256 256-114.616 256-256-114.614-256-256-256zM448 768h-128v-128h-128v-128h128v-128h128v128h128v128h-128z" />
<glyph unicode="&#xe638;" d="M992.262 88.604l-242.552 206.294c-25.074 22.566-51.89 32.926-73.552 31.926 57.256 67.068 91.842 154.078 91.842 249.176 0 212.078-171.922 384-384 384s-384-171.922-384-384c0-212.078 171.922-384 384-384 95.098 0 182.108 34.586 249.176 91.844-1-21.662 9.36-48.478 31.926-73.552l206.294-242.552c35.322-39.246 93.022-42.554 128.22-7.356s31.892 92.898-7.354 128.22zM384 320c-141.384 0-256 114.616-256 256s114.616 256 256 256 256-114.616 256-256-114.614-256-256-256zM192 640h384v-128h-384z" />
<glyph unicode="&#xe639;" d="M1002.132 645.758l-101.106 101.104c-24.792 24.794-65.37 65.368-90.162 90.164l-101.106 101.104c-24.792 24.794-68.954 29.166-98.13 9.716l-276.438-184.292c-29.176-19.452-40.218-61.028-24.536-92.39l70.486-140.974c2.154-4.306 4.646-8.896 7.39-13.66l-356.53-356.53-32-224h192v64h128v128h128v128h128v71.186c6.396-3.812 12.534-7.216 18.192-10.044l140.97-70.488c31.366-15.682 72.94-4.638 92.39 24.538l184.294 276.44c19.454 29.172 15.078 73.33-9.714 98.126zM150.628 105.374l-45.254 45.254 311.572 311.57 45.254-45.254-311.572-311.57zM917.020 536.236l-45.256-45.256c-12.446-12.444-32.808-12.444-45.254 0l-271.53 271.53c-12.446 12.444-12.446 32.81 0 45.254l45.256 45.256c12.446 12.444 32.808 12.444 45.254 0l271.53-271.53c12.446-12.444 12.446-32.81 0-45.254z" />
<glyph unicode="&#xe63a;" d="M704 960c-176.73 0-320-143.268-320-320 0-20.026 1.858-39.616 5.376-58.624l-389.376-389.376v-192c0-35.346 28.654-64 64-64h64v64h128v128h128v128h128l83.042 83.042c34.010-12.316 70.696-19.042 108.958-19.042 176.73 0 320 143.268 320 320s-143.27 320-320 320zM799.874 639.874c-53.020 0-96 42.98-96 96s42.98 96 96 96 96-42.98 96-96-42.98-96-96-96z" />
<glyph unicode="&#xe63b;" d="M832 512h-64v192c0 141.384-114.616 256-256 256s-256-114.616-256-256v-192h-64c-35.2 0-64-28.8-64-64v-448c0-35.2 28.8-64 64-64h640c35.2 0 64 28.8 64 64v448c0 35.2-28.8 64-64 64zM512 128c-35.346 0-64 28.654-64 64s28.654 64 64 64 64-28.654 64-64-28.654-64-64-64zM640 512h-256v192c0 70.58 57.42 128 128 128s128-57.42 128-128v-192z" />
<glyph unicode="&#xe63c;" d="M592 512h-16v192c0 105.87-86.13 192-192 192h-128c-105.87 0-192-86.13-192-192v-192h-16c-26.4 0-48-21.6-48-48v-480c0-26.4 21.6-48 48-48h544c26.4 0 48 21.6 48 48v480c0 26.4-21.6 48-48 48zM384 64h-128l27.84 139.2c-16.808 11.532-27.84 30.874-27.84 52.8 0 35.346 28.654 64 64 64s64-28.654 64-64c0-21.926-11.032-41.268-27.84-52.8l27.84-139.2zM448 512h-256v192c0 35.29 28.71 64 64 64h128c35.29 0 64-28.71 64-64v-192z" />
<glyph unicode="&#xe63d;" d="M768 896h-128c-105.87 0-192-86.13-192-192v-192h-400c-26.4 0-48-21.6-48-48v-480c0-26.4 21.6-48 48-48h544c26.4 0 48 21.6 48 48v480c0 26.4-21.6 48-48 48h-16v192c0 35.29 28.71 64 64 64h128c35.29 0 64-28.71 64-64v-192h128v192c0 105.87-86.13 192-192 192zM384 64h-128l27.84 139.2c-16.808 11.532-27.84 30.874-27.84 52.8 0 35.346 28.654 64 64 64s64-28.654 64-64c0-21.926-11.032-41.268-27.84-52.8l27.84-139.2z" />
<glyph unicode="&#xe63e;" d="M1002.934 142.124l-460.552 394.76c21.448 40.298 33.618 86.282 33.618 135.116 0 159.058-128.942 288-288 288-29.094 0-57.172-4.332-83.646-12.354l166.39-166.39c24.89-24.89 24.89-65.62 0-90.51l-101.49-101.49c-24.89-24.89-65.62-24.89-90.51 0l-166.39 166.39c-8.022-26.474-12.354-54.552-12.354-83.646 0-159.058 128.942-288 288-288 48.834 0 94.818 12.17 135.116 33.62l394.76-460.552c22.908-26.724 62.016-28.226 86.904-3.338l101.492 101.492c24.888 24.888 23.386 63.994-3.338 86.902z" />
<glyph unicode="&#xe63f;" d="M933.79 349.75c-53.726 93.054-21.416 212.304 72.152 266.488l-100.626 174.292c-28.75-16.854-62.176-26.518-97.846-26.518-107.536 0-194.708 87.746-194.708 195.99h-201.258c0.266-33.41-8.074-67.282-25.958-98.252-53.724-93.056-173.156-124.702-266.862-70.758l-100.624-174.292c28.97-16.472 54.050-40.588 71.886-71.478 53.638-92.908 21.512-211.92-71.708-266.224l100.626-174.292c28.65 16.696 61.916 26.254 97.4 26.254 107.196 0 194.144-87.192 194.7-194.958h201.254c-0.086 33.074 8.272 66.57 25.966 97.218 53.636 92.906 172.776 124.594 266.414 71.012l100.626 174.29c-28.78 16.466-53.692 40.498-71.434 71.228zM512 240.668c-114.508 0-207.336 92.824-207.336 207.334 0 114.508 92.826 207.334 207.336 207.334s207.332-92.826 207.332-207.334c-0.002-114.51-92.824-207.334-207.332-207.334z" />
<glyph unicode="&#xe640;" d="M363.722 237.948l41.298 57.816-45.254 45.256-57.818-41.296c-10.722 5.994-22.204 10.774-34.266 14.192l-11.682 70.084h-64l-11.68-70.086c-12.062-3.418-23.544-8.198-34.266-14.192l-57.818 41.298-45.256-45.256 41.298-57.816c-5.994-10.72-10.774-22.206-14.192-34.266l-70.086-11.682v-64l70.086-11.682c3.418-12.060 8.198-23.544 14.192-34.266l-41.298-57.816 45.254-45.256 57.818 41.296c10.722-5.994 22.204-10.774 34.266-14.192l11.682-70.084h64l11.68 70.086c12.062 3.418 23.544 8.198 34.266 14.192l57.818-41.296 45.254 45.256-41.298 57.816c5.994 10.72 10.774 22.206 14.192 34.266l70.088 11.68v64l-70.086 11.682c-3.418 12.060-8.198 23.544-14.192 34.266zM224 96c-35.348 0-64 28.654-64 64s28.652 64 64 64 64-28.654 64-64-28.652-64-64-64zM1024 576v64l-67.382 12.25c-1.242 8.046-2.832 15.978-4.724 23.79l57.558 37.1-24.492 59.128-66.944-14.468c-4.214 6.91-8.726 13.62-13.492 20.13l39.006 56.342-45.256 45.254-56.342-39.006c-6.512 4.766-13.22 9.276-20.13 13.494l14.468 66.944-59.128 24.494-37.1-57.558c-7.812 1.892-15.744 3.482-23.79 4.724l-12.252 67.382h-64l-12.252-67.382c-8.046-1.242-15.976-2.832-23.79-4.724l-37.098 57.558-59.128-24.492 14.468-66.944c-6.91-4.216-13.62-8.728-20.13-13.494l-56.342 39.006-45.254-45.254 39.006-56.342c-4.766-6.51-9.278-13.22-13.494-20.13l-66.944 14.468-24.492-59.128 57.558-37.1c-1.892-7.812-3.482-15.742-4.724-23.79l-67.384-12.252v-64l67.382-12.25c1.242-8.046 2.832-15.978 4.724-23.79l-57.558-37.1 24.492-59.128 66.944 14.468c4.216-6.91 8.728-13.618 13.494-20.13l-39.006-56.342 45.254-45.256 56.342 39.006c6.51-4.766 13.22-9.276 20.13-13.492l-14.468-66.944 59.128-24.492 37.102 57.558c7.81-1.892 15.742-3.482 23.788-4.724l12.252-67.384h64l12.252 67.382c8.044 1.242 15.976 2.832 23.79 4.724l37.1-57.558 59.128 24.492-14.468 66.944c6.91 4.216 13.62 8.726 20.13 13.492l56.342-39.006 45.256 45.256-39.006 56.342c4.766 6.512 9.276 13.22 13.492 20.13l66.944-14.468 24.492 59.13-57.558 37.1c1.892 7.812 3.482 15.742 4.724 23.79l67.382 12.25zM672 468.8c-76.878 0-139.2 62.322-139.2 139.2s62.32 139.2 139.2 139.2 139.2-62.322 139.2-139.2c0-76.878-62.32-139.2-139.2-139.2z" />
<glyph unicode="&#xe641;" d="M1024 351.906v192.188l-146.774 24.462c-5.958 18.132-13.222 35.668-21.694 52.5l86.454 121.034-135.896 135.898-120.826-86.304c-16.91 8.554-34.538 15.888-52.768 21.902l-24.402 146.414h-192.188l-24.402-146.416c-18.23-6.014-35.858-13.348-52.766-21.902l-120.828 86.304-135.898-135.898 86.454-121.036c-8.47-16.83-15.734-34.366-21.692-52.498l-146.774-24.46v-192.188l147.118-24.52c5.96-17.968 13.21-35.348 21.642-52.030l-86.748-121.448 135.898-135.896 121.654 86.894c16.602-8.35 33.89-15.528 51.764-21.434l24.578-147.472h192.188l24.578 147.474c17.874 5.906 35.162 13.084 51.766 21.432l121.652-86.892 135.896 135.896-86.744 121.446c8.432 16.682 15.678 34.062 21.64 52.032l147.118 24.518zM512 320c-70.692 0-128 57.306-128 128s57.308 128 128 128c70.694 0 128-57.308 128-128s-57.306-128-128-128z" />
<glyph unicode="&#xe642;" d="M1009.996 131.024l-301.544 301.544c-18.668 18.668-49.214 18.668-67.882 0l-22.626-22.626-184 184 302.056 302.058h-320l-142.058-142.058-14.060 14.058h-67.882v-67.882l14.058-14.058-206.058-206.060 160-160 206.058 206.058 184-184-22.626-22.626c-18.668-18.668-18.668-49.214 0-67.882l301.544-301.544c18.668-18.668 49.214-18.668 67.882 0l113.136 113.136c18.67 18.666 18.67 49.214 0.002 67.882z" />
<glyph unicode="&#xe643;" d="M256 768l-128 128h-64v-64l128-128zM320 960h64v-128h-64zM576 640h128v-64h-128zM640 832v64h-64l-128-128 64-64zM0 640h128v-64h-128zM320 384h64v-128h-64zM64 384v-64h64l128 128-64 64zM1010 78l-636.118 636.118c-18.668 18.668-49.214 18.668-67.882 0l-60.118-60.118c-18.668-18.668-18.668-49.214 0-67.882l636.118-636.118c18.668-18.668 49.214-18.668 67.882 0l60.118 60.118c18.668 18.668 18.668 49.214 0 67.882zM480 416l-192 192 64 64 192-192-64-64z" />
<glyph unicode="&#xe644;" d="M448 384v448c-247.424 0-448-200.576-448-448s200.576-448 448-448 448 200.576 448 448c0 72.034-17.028 140.084-47.236 200.382l-400.764-200.382zM912.764 712.382c-73.552 146.816-225.374 247.618-400.764 247.618v-448l400.764 200.382z" />
<glyph unicode="&#xe645;" d="M128 64h896v-128h-1024v1024h128zM288 128c-53.020 0-96 42.98-96 96s42.98 96 96 96c2.828 0 5.622-0.148 8.388-0.386l103.192 171.986c-9.84 15.070-15.58 33.062-15.58 52.402 0 53.020 42.98 96 96 96s96-42.98 96-96c0-19.342-5.74-37.332-15.58-52.402l103.192-171.986c2.766 0.238 5.56 0.386 8.388 0.386 2.136 0 4.248-0.094 6.35-0.23l170.356 298.122c-10.536 15.408-16.706 34.036-16.706 54.11 0 53.020 42.98 96 96 96s96-42.98 96-96c0-53.020-42.98-96-96-96-2.14 0-4.248 0.094-6.35 0.232l-170.356-298.124c10.536-15.406 16.706-34.036 16.706-54.11 0-53.020-42.98-96-96-96s-96 42.98-96 96c0 19.34 5.74 37.332 15.578 52.402l-103.19 171.984c-2.766-0.238-5.56-0.386-8.388-0.386s-5.622 0.146-8.388 0.386l-103.192-171.986c9.84-15.068 15.58-33.060 15.58-52.4 0-53.020-42.98-96-96-96z" />
<glyph unicode="&#xe646;" d="M0 128h1024v-128h-1024zM128 384h128v-192h-128zM320 640h128v-448h-128zM512 448h128v-256h-128zM704 832h128v-640h-128z" />
<glyph unicode="&#xe647;" d="M771.516 640c18.126 12.88 35.512 27.216 51.444 43.148 33.402 33.402 55.746 74.5 62.912 115.722 7.858 45.186-3.672 87.14-31.63 115.1-22.3 22.298-52.51 34.086-87.364 34.086-49.632 0-101.922-23.824-143.46-65.362-66.476-66.476-105.226-158.238-126.076-223.722-15.44 65.802-46.206 154.644-106.018 214.458-32.094 32.092-73.114 48.57-111.846 48.57-31.654 0-61.78-11.004-84.26-33.486-49.986-49.988-43.232-137.786 15.086-196.104 20.792-20.792 45.098-38.062 70.72-52.412h-217.024v-256h64v-448h768v448.002h64v256h-188.484zM674.326 831.782c27.724 27.724 62.322 44.274 92.55 44.274 10.7 0 25.708-2.254 36.45-12.998 26.030-26.028 11.412-86.308-31.28-128.998-43.946-43.946-103.060-74.168-154.432-94.060h-50.672c18.568 57.548 52.058 136.456 107.384 191.782zM233.934 799.11c-0.702 9.12-0.050 26.248 12.196 38.494 10.244 10.244 23.788 12.396 33.348 12.396v0c21.258 0 43.468-10.016 60.932-27.48 33.872-33.872 61.766-87.772 80.668-155.876 0.51-1.84 1.008-3.67 1.496-5.486-1.816 0.486-3.646 0.984-5.486 1.496-68.104 18.904-122.002 46.798-155.874 80.67-15.828 15.826-25.77 36.16-27.28 55.786zM448 0h-256v416h256v-416zM448 448h-320v128h320v-128zM832 0h-256v416h256v-416zM896 448h-320v128h320v-128z" />
<glyph unicode="&#xe648;" d="M717.548 960c-168.764-278.986-302.3-141.782-497.59-342.43-172.336-177.066-112.582-390.306 32.524-463.744 143.23 73.188 289.768 236.822 398.45 473.724 0 0 97.666-299.144-201.49-587.374 145.268-170.148 391.828-51.772 460.726 218.918 74.898 294.274-120.388 593.896-192.62 700.906zM97.012-6.242c0.116-2.906 3.422-57.758 75.366-57.758 52.344 0 317.832 144.678 454.266 520.204-206.438-365.214-506.12-455.838-529.632-462.446z" />
<glyph unicode="&#xe649;" d="M704 896l-320-320h-192l-192-256c0 0 203.416 56.652 322.066 30.084l-322.066-414.084 421.902 328.144c58.838-134.654-37.902-328.144-37.902-328.144l256 192v192l320 320 64 320-320-64z" />
<glyph unicode="&#xe64a;" d="M956.29 155.518l-316.29 527.024v213.458h32c17.6 0 32 14.4 32 32s-14.4 32-32 32h-320c-17.6 0-32-14.4-32-32s14.4-32 32-32h32v-213.458l-316.288-527.024c-72.442-120.734-16.512-219.518 124.288-219.518h640c140.8 0 196.73 98.784 124.29 219.518zM241.038 320l206.962 344.938v231.062h128v-231.062l206.964-344.938h-541.926z" />
<glyph unicode="&#xe64b;" d="M192-64h640l64 704h-768zM640 832v128h-256v-128h-320v-192l64 64h768l64-64v192h-320zM576 832h-128v64h128v-64z" />
<glyph unicode="&#xe64c;" d="M800 832h-576c-53.020 0-96-42.98-96-96v-32h768v32c0 53.020-42.98 96-96 96zM632.32 896l14.116-101h-268.872l14.114 101h240.642zM640 960h-256c-26.4 0-50.99-21.392-54.642-47.538l-18.714-133.924c-3.654-26.146 14.956-47.538 41.356-47.538h320c26.4 0 45.010 21.392 41.358 47.538l-18.714 133.924c-3.654 26.146-28.244 47.538-54.644 47.538v0zM816 640h-608c-35.2 0-61.392-28.682-58.206-63.738l52.412-576.526c3.186-35.054 34.594-63.736 69.794-63.736h480c35.2 0 66.608 28.682 69.794 63.736l52.41 576.526c3.188 35.056-23.004 63.738-58.204 63.738zM384 64h-96l-32 448h128v-448zM576 64h-128v448h128v-448zM736 64h-96v448h128l-32-448z" />
<glyph unicode="&#xe64d;" d="M1024 384l-128 256h-192v128c0 35.2-28.8 64-64 64h-576c-35.2 0-64-28.8-64-64v-512l64-64h81.166c-10.898-18.832-17.166-40.678-17.166-64 0-70.692 57.308-128 128-128s128 57.308 128 128c0 23.322-6.268 45.168-17.166 64h354.334c-10.898-18.832-17.168-40.678-17.168-64 0-70.692 57.308-128 128-128s128 57.308 128 128c0 23.322-6.27 45.168-17.168 64h81.168v192zM704 384v160h132.668l80-160h-212.668z" />
<glyph unicode="&#xe64e;" d="M960 960l-448-128-448 128c0 0-4.5-51.698 0-128l448-140.090 448 140.090c4.498 76.302 0 128 0 128zM72.19 764.894c23.986-250.696 113.49-672.234 439.81-828.894 326.32 156.66 415.824 578.198 439.81 828.894l-439.81-165.358-439.81 165.358z" />
<glyph unicode="&#xe64f;" d="M384 960l-384-512h384l-256-512 896 640h-512l384 384z" />
<glyph unicode="&#xe650;" d="M640 813.412v-135.958c36.206-15.804 69.5-38.408 98.274-67.18 60.442-60.44 93.726-140.8 93.726-226.274s-33.286-165.834-93.726-226.274c-60.44-60.44-140.798-93.726-226.274-93.726s-165.834 33.286-226.274 93.726c-60.44 60.44-93.726 140.8-93.726 226.274s33.286 165.834 93.726 226.274c28.774 28.774 62.068 51.378 98.274 67.182v135.956c-185.048-55.080-320-226.472-320-429.412 0-247.424 200.578-448 448-448s448 200.576 448 448c0 202.94-134.95 374.332-320 429.412zM448 960h128v-512h-128z" />
<glyph unicode="&#xe651;" d="M448 165.49l-205.254 237.254 58.508 58.51 146.746-114.744 274.744 242.744 58.512-58.508zM831.772 832c0.078-0.066 0.162-0.15 0.228-0.23v-767.542c-0.066-0.078-0.15-0.162-0.228-0.228h-639.544c-0.080 0.066-0.162 0.15-0.228 0.228v767.544c0.066 0.080 0.15 0.162 0.23 0.228h-128.23v-768c0-70.4 57.6-128 128-128h640c70.4 0 128 57.6 128 128v768h-128.228zM640 832v64c0 35.346-28.654 64-64 64h-128c-35.346 0-64-28.654-64-64v-64h-128v-128h512v128h-128zM576 832h-128v64h128v-64z" />
<glyph unicode="&#xe652;" d="M0 960h256v-256h-256zM384 896h640v-128h-640zM0 576h256v-256h-256zM384 512h640v-128h-640zM0 192h256v-256h-256zM384 128h640v-128h-640z" />
<glyph unicode="&#xe653;" d="M384 896h640v-128h-640v128zM384 512h640v-128h-640v128zM384 128h640v-128h-640v128zM0 832c0 70.692 57.308 128 128 128s128-57.308 128-128c0-70.692-57.308-128-128-128s-128 57.308-128 128zM0 448c0 70.692 57.308 128 128 128s128-57.308 128-128c0-70.692-57.308-128-128-128s-128 57.308-128 128zM0 64c0 70.692 57.308 128 128 128s128-57.308 128-128c0-70.692-57.308-128-128-128s-128 57.308-128 128z" />
<glyph unicode="&#xe654;" d="M384 128h640v-128h-640zM384 512h640v-128h-640zM384 896h640v-128h-640zM192 960v-256h-64v192h-64v64zM128 434v-50h128v-64h-192v146l128 60v50h-128v64h192v-146zM256 256v-320h-192v64h128v64h-128v64h128v64h-128v64z" />
<glyph unicode="&#xe655;" d="M0 576h704v-128h-704v128zM0 768h704v-128h-704v128zM0 384h704v-128h-704v128zM0 192h704v-128h-704v128zM768 384l128-192 128 192h-256zM1024 448l-128 192-128-192h256z" />
<glyph unicode="&#xe656;" d="M64 768h896v-192h-896zM64 512h896v-192h-896zM64 256h896v-192h-896z" />
<glyph unicode="&#xe657;" d="M1024 302.458c0 82.090-56.678 150.9-132.996 169.48-3.242 128.7-108.458 232.062-237.862 232.062-75.792 0-143.266-35.494-186.854-90.732-24.442 31.598-62.69 51.96-105.708 51.96-73.81 0-133.642-59.874-133.642-133.722 0-6.436 0.48-12.76 1.364-18.954-11.222 2.024-22.766 3.138-34.57 3.138-106.998 0.002-193.732-86.786-193.732-193.842 0-107.062 86.734-193.848 193.73-193.848l656.262 0.012c96.138 0.184 174.008 78.212 174.008 174.446z" />
<glyph unicode="&#xe658;" d="M480 896c-265.096 0-480-214.904-480-480s214.904-480 480-480c265.098 0 480 214.902 480 480s-214.902 480-480 480zM751.59 256c8.58 40.454 13.996 83.392 15.758 128h127.446c-3.336-44.196-13.624-87.114-30.68-128h-112.524zM208.41 576c-8.58-40.454-13.996-83.392-15.758-128h-127.444c3.336 44.194 13.622 87.114 30.678 128h112.524zM686.036 576c9.614-40.962 15.398-83.854 17.28-128h-191.316v128h174.036zM512 640v187.338c14.59-4.246 29.044-11.37 43.228-21.37 26.582-18.74 52.012-47.608 73.54-83.486 14.882-24.802 27.752-52.416 38.496-82.484h-155.264zM331.232 722.484c21.528 35.878 46.956 64.748 73.54 83.486 14.182 10 28.638 17.124 43.228 21.37v-187.34h-155.264c10.746 30.066 23.616 57.68 38.496 82.484zM448 576v-128h-191.314c1.88 44.146 7.666 87.038 17.278 128h174.036zM95.888 256c-17.056 40.886-27.342 83.804-30.678 128h127.444c1.762-44.608 7.178-87.546 15.758-128h-112.524zM256.686 384h191.314v-128h-174.036c-9.612 40.96-15.398 83.854-17.278 128zM448 192v-187.34c-14.588 4.246-29.044 11.372-43.228 21.37-26.584 18.74-52.014 47.61-73.54 83.486-14.882 24.804-27.75 52.418-38.498 82.484h155.266zM628.768 109.516c-21.528-35.876-46.958-64.746-73.54-83.486-14.184-9.998-28.638-17.124-43.228-21.37v187.34h155.266c-10.746-30.066-23.616-57.68-38.498-82.484zM512 256v128h191.314c-1.88-44.146-7.666-87.040-17.28-128h-174.034zM767.348 448c-1.762 44.608-7.178 87.546-15.758 128h112.524c17.056-40.886 27.344-83.806 30.68-128h-127.446zM830.658 640h-95.9c-18.638 58.762-44.376 110.294-75.316 151.428 42.536-20.34 81.058-47.616 114.714-81.272 21.48-21.478 40.362-44.938 56.502-70.156zM185.844 710.156c33.658 33.658 72.18 60.932 114.714 81.272-30.942-41.134-56.676-92.666-75.316-151.428h-95.898c16.138 25.218 35.022 48.678 56.5 70.156zM129.344 192h95.898c18.64-58.762 44.376-110.294 75.318-151.43-42.536 20.34-81.058 47.616-114.714 81.274-21.48 21.478-40.364 44.938-56.502 70.156zM774.156 121.844c-33.656-33.658-72.18-60.934-114.714-81.274 30.942 41.134 56.678 92.668 75.316 151.43h95.9c-16.14-25.218-35.022-48.678-56.502-70.156z" />
<glyph unicode="&#xe659;" d="M874.040 810.038c96.702-96.704 149.96-225.28 149.96-362.040s-53.258-265.334-149.96-362.038c-96.706-96.702-225.28-149.96-362.040-149.96s-265.334 53.258-362.040 149.96c-96.702 96.704-149.96 225.278-149.96 362.038s53.254 265.336 149.96 362.040c96.706 96.704 225.28 149.962 362.040 149.962s265.334-53.258 362.040-149.962zM828.784 131.214c63.058 63.060 104.986 141.608 122.272 227.062-13.474-19.836-26.362-27.194-34.344 17.206-8.22 72.39-74.708 26.148-116.516 51.86-44.004-29.658-142.906 57.662-126.098-40.824 25.934-44.422 140.008 59.45 83.148-34.542-36.274-65.616-132.642-210.932-120.106-286.258 1.582-109.744-112.134-22.884-151.314 13.52-26.356 72.92-8.982 200.374-77.898 236.086-74.802 3.248-139.004 10.046-167.994 93.67-17.446 59.828 18.564 148.894 82.678 162.644 93.85 58.966 127.374-69.054 215.39-71.434 27.328 28.594 101.816 37.686 107.992 69.75-57.75 10.19 73.268 48.558-5.528 70.382-43.47-5.112-71.478-45.074-48.368-78.958-84.238-19.642-86.936 121.904-167.91 77.258-2.058-70.59-132.222-22.886-45.036-8.572 29.956 13.088-48.86 51.016-6.28 44.124 20.916 1.136 91.332 25.812 72.276 42.402 39.21 24.34 72.16-58.29 110.538 1.882 27.708 46.266-11.62 54.808-46.35 31.356-19.58 21.924 34.57 69.276 82.332 89.738 15.918 6.82 31.122 10.536 42.746 9.484 24.058-27.792 68.55-32.606 70.878 3.342-59.582 28.534-125.276 43.608-193.292 43.608-97.622 0-190.47-31.024-267.308-88.39 20.65-9.46 32.372-21.238 12.478-36.296-15.456-46.054-78.17-107.876-133.224-99.124-28.586-49.296-47.412-103.606-55.46-160.528 46.112-15.256 56.744-45.45 46.836-55.55-23.496-20.488-37.936-49.53-45.376-81.322 15.010-91.836 58.172-176.476 125.27-243.576 84.616-84.614 197.118-131.214 316.784-131.214s232.168 46.6 316.784 131.214z" />
<glyph unicode="&#xe65a;" d="M832 787.694c76.466 0 145.092 41.622 192 73.106v-595.69c-46.908-31.486-115.534-73.11-192-73.11s-145.092 22.67-192 54.156c-46.908 31.48-115.534 54.15-192 54.15s-145.090-38.916-192-70.396v595.69c46.91 31.484 115.534 70.4 192 70.4s145.092-22.668 192-54.152c46.908-31.484 115.534-54.154 192-54.154zM128 960c35.346 0 64-28.654 64-64v-960h-128v960c0 35.346 28.654 64 64 64z" />
<glyph unicode="&#xe65b;" d="M192 960v-1024l320 320 320-320v1024z" />
<glyph unicode="&#xe65c;" d="M256 832v-896l320 320 320-320v896zM768 960h-640v-896l64 64v768h576z" />
<glyph unicode="&#xe65d;" d="M512 538c-49.626 0-90-40.374-90-90s40.374-90 90-90c49.626 0 90 40.374 90 90s-40.374 90-90 90zM512 640v0c106.040 0 192-85.96 192-192s-85.96-192-192-192c-106.040 0-192 85.96-192 192s85.96 192 192 192zM877.254 173.254c24.996-24.994 24.994-65.516 0-90.508-24.994-24.996-65.514-24.996-90.508 0l-64 64c-24.996 24.994-24.996 65.514 0 90.508 24.992 24.994 65.514 24.996 90.508 0l64-64zM301.254 749.254c24.996-24.994 24.994-65.516 0-90.508-24.994-24.996-65.514-24.996-90.508 0l-64 64c-24.996 24.994-24.996 65.514 0 90.508 24.992 24.994 65.514 24.996 90.508 0l64-64zM786.744 813.254c24.994 24.996 65.516 24.994 90.508 0 24.996-24.994 24.996-65.514 0.002-90.508l-64-64c-24.996-24.996-65.516-24.996-90.508 0-24.996 24.992-24.996 65.514 0 90.508l63.998 64zM210.746 237.254c24.994 24.996 65.514 24.994 90.508 0s24.996-65.514 0-90.508l-64-64c-24.994-24.996-65.514-24.996-90.508 0-24.994 24.992-24.996 65.514 0 90.508l64 64zM512 896c35.346 0 64-28.654 64-64v-64c0-35.346-28.654-64-64-64s-64 28.654-64 64v64c0 35.346 28.654 64 64 64zM512 192c35.346 0 64-28.652 64-64v-64c0-35.348-28.654-64-64-64s-64 28.652-64 64v64c0 35.348 28.654 64 64 64zM64 448c0 35.346 28.654 64 64 64h64c35.346 0 64-28.654 64-64s-28.654-64-64-64h-64c-35.346 0-64 28.652-64 64zM768 448c0 35.346 28.652 64 64 64h64c35.348 0 64-28.654 64-64s-28.652-64-64-64h-64c-35.348 0-64 28.654-64 64z" />
<glyph unicode="&#xe65e;" d="M512 704c-141.384 0-256-114.616-256-256s114.616-256 256-256 256 114.616 256 256-114.616 256-256 256zM512 288v320c88.224 0 160-71.776 160-160s-71.776-160-160-160zM512 128c35.346 0 64-28.654 64-64v-64c0-35.346-28.654-64-64-64s-64 28.654-64 64v64c0 35.346 28.654 64 64 64zM512 768c-35.346 0-64 28.654-64 64v64c0 35.346 28.654 64 64 64s64-28.654 64-64v-64c0-35.346-28.654-64-64-64zM960 512c35.346 0 64-28.654 64-64s-28.654-64-64-64h-64c-35.346 0-64 28.654-64 64s28.654 64 64 64h64zM192 448c0-35.346-28.654-64-64-64h-64c-35.346 0-64 28.654-64 64s28.654 64 64 64h64c35.346 0 64-28.654 64-64zM828.784 221.726l45.256-45.256c24.992-24.992 24.992-65.516 0-90.51-24.994-24.992-65.518-24.992-90.51 0l-45.256 45.256c-24.992 24.992-24.992 65.516 0 90.51 24.994 24.992 65.518 24.992 90.51 0zM195.216 674.274l-45.256 45.256c-24.994 24.994-24.994 65.516 0 90.51s65.516 24.994 90.51 0l45.256-45.256c24.994-24.994 24.994-65.516 0-90.51s-65.516-24.994-90.51 0zM828.784 674.274c-24.992-24.992-65.516-24.992-90.51 0-24.992 24.994-24.992 65.516 0 90.51l45.256 45.254c24.992 24.994 65.516 24.994 90.51 0 24.992-24.994 24.992-65.516 0-90.51l-45.256-45.254zM195.216 221.726c24.992 24.992 65.516 24.992 90.508 0 24.994-24.994 24.994-65.518 0-90.51l-45.254-45.256c-24.994-24.992-65.516-24.992-90.51 0-24.994 24.994-24.994 65.518 0 90.51l45.256 45.256z" />
<glyph unicode="&#xe65f;" d="M1024 562.95l-353.78 51.408-158.22 320.582-158.216-320.582-353.784-51.408 256-249.538-60.432-352.352 316.432 166.358 316.432-166.358-60.434 352.352 256.002 249.538zM512 206.502l-223.462-117.48 42.676 248.83-180.786 176.222 249.84 36.304 111.732 226.396 111.736-226.396 249.836-36.304-180.788-176.222 42.678-248.83-223.462 117.48z" />
<glyph unicode="&#xe660;" d="M1024 562.95l-353.78 51.408-158.22 320.582-158.216-320.582-353.784-51.408 256-249.538-60.432-352.352 316.432 166.358 316.432-166.358-60.434 352.352 256.002 249.538zM512 206.502l-0.942-0.496 0.942 570.768 111.736-226.396 249.836-36.304-180.788-176.222 42.678-248.83-223.462 117.48z" />
<glyph unicode="&#xe661;" d="M1024 562.95l-353.78 51.408-158.22 320.582-158.216-320.582-353.784-51.408 256-249.538-60.432-352.352 316.432 166.358 316.432-166.358-60.434 352.352 256.002 249.538z" />
<glyph unicode="&#xe662;" d="M1024 601.844c0-86.362-37.218-164.030-96.49-217.844h0.49l-320-320c-32-32-64-64-96-64s-64 32-96 64l-319.51 320c-59.272 53.814-96.49 131.482-96.49 217.844 0 162.458 131.698 294.156 294.156 294.156 86.362 0 164.030-37.218 217.844-96.49 53.814 59.272 131.482 96.49 217.844 96.49 162.456 0 294.156-131.698 294.156-294.156z" />
<glyph unicode="&#xe663;" d="M1024 601.844c0 162.458-131.7 294.156-294.156 294.156-86.362 0-164.030-37.218-217.844-96.49-53.814 59.272-131.482 96.49-217.844 96.49-162.458 0-294.156-131.698-294.156-294.156 0-86.362 37.218-164.030 96.49-217.844h-0.49l320-320c32-32 64-64 96-64s64 32 96 64l319.51 320c59.272 53.814 96.49 131.482 96.49 217.844zM841.468 478.768l-323.978-324.258c-1.678-1.678-3.532-3.532-5.49-5.48-1.96 1.95-3.814 3.802-5.49 5.48l-323.978 324.256c-35.166 31.928-54.532 75.638-54.532 123.078 0 91.618 74.538 166.156 166.156 166.156 47.44 0 91.15-19.366 123.076-54.532l94.768-104.38 94.768 104.378c31.928 35.168 75.636 54.534 123.076 54.534 91.618 0 166.156-74.538 166.156-166.156 0-47.44-19.368-91.15-54.532-123.076z" />
<glyph unicode="&#xe664;" d="M928 384c73 0 32-192-32-192 32 0 0-160-64-160 0-64-64-96-128-96-270.352 0-175.264 67.65-448 96v512c240.922 72.268 480 253.424 480 416 53 0 192-64 0-384 0 0 160 0 192 0 96 0 64-192 0-192zM192 544v-512h64v-32h-128c-35.2 0-64 43.2-64 96v384c0 52.8 28.8 96 64 96h128v-32h-64z" />
<glyph unicode="&#xe665;" d="M96 512c-73 0-32 192 32 192-32 0 0 160 64 160 0 64 64 96 128 96 270.352 0 175.264-67.65 448-96v-512c-240.922-72.268-480-253.424-480-416-53 0-192 64 0 384 0 0-160 0-192 0-96 0-64 192 0 192zM832 352v512h-64v32h128c35.2 0 64-43.2 64-96v-384c0-52.8-28.8-96-64-96h-128v32h64z" />
<glyph unicode="&#xe666;" d="M892.118 771.882l-120.234 120.236c-37.338 37.336-111.084 67.882-163.884 67.882h-448c-52.8 0-96-43.2-96-96v-832c0-52.8 43.2-96 96-96h704c52.8 0 96 43.2 96 96v576c0 52.8-30.546 126.546-67.882 163.882zM640 824.438c2.196-0.804 4.452-1.68 6.758-2.636 18.060-7.482 30.598-16.176 34.616-20.194l120.236-120.238c4.018-4.018 12.712-16.554 20.194-34.614 0.956-2.306 1.832-4.562 2.636-6.756h-184.44v184.438zM832 64h-640v768h384v-256h256v-512z" />
<glyph unicode="&#xe667;" d="M892.118 771.882l-120.234 120.236c-37.338 37.336-111.084 67.882-163.884 67.882h-448c-52.8 0-96-43.2-96-96v-832c0-52.8 43.2-96 96-96h704c52.8 0 96 43.2 96 96v576c0 52.8-30.546 126.546-67.882 163.882zM640 824.438c2.196-0.804 4.452-1.68 6.758-2.636 18.060-7.482 30.598-16.176 34.616-20.194l120.236-120.238c4.018-4.018 12.712-16.554 20.194-34.614 0.956-2.306 1.832-4.562 2.636-6.756h-184.44v184.438zM832 64h-640v768h384v-256h256v-512zM256 448h512v-64h-512zM256 320h512v-64h-512zM256 192h512v-64h-512z" />
<glyph unicode="&#xe668;" d="M1024 640l-512 256-512-256 512-256 512 256zM512 811.030l342.058-171.030-342.058-171.030-342.058 171.030 342.058 171.030zM921.444 499.278l102.556-51.278-512-256-512 256 102.556 51.278 409.444-204.722zM921.444 307.278l102.556-51.278-512-256-512 256 102.556 51.278 409.444-204.722z" />
<glyph unicode="&#xe669;" d="M512.002 960l-512.002-512h320v-511.998l384-0.002v512h320z" />
<glyph unicode="&#xe66a;" d="M512-64l512 512h-320v511.998l-384 0.002v-512h-320z" />
<glyph unicode="&#xe66b;" d="M972.512 554.24l-98.048 19.648c-4.928 14.176-10.752 27.936-17.184 41.248l55.552 83.328c16.928 25.376 13.568 59.2-8 80.736l-61.568 61.568c-12.384 12.384-28.736 18.752-45.312 18.752-12.256 0-24.64-3.52-35.424-10.752l-83.328-55.52c-13.376 6.464-27.136 12.224-41.312 17.152l-19.648 98.080c-5.952 29.952-32.256 51.456-62.752 51.456h-87.040c-30.496 0-56.768-21.536-62.752-51.456l-19.648-98.080c-14.176-4.928-27.936-10.72-41.248-17.152l-83.296 55.52c-10.848 7.232-23.2 10.752-35.488 10.752-16.544 0-32.896-6.368-45.28-18.752l-61.536-61.568c-21.568-21.568-24.928-55.36-8-80.736l55.52-83.328c-6.464-13.344-12.224-27.104-17.152-41.28l-98.112-19.616c-29.92-5.984-51.456-32.256-51.456-62.752v-87.040c0-30.496 21.536-56.8 51.456-62.752l98.080-19.68c4.928-14.176 10.72-27.936 17.152-41.248l-55.488-83.328c-16.928-25.376-13.568-59.2 8-80.736l61.568-61.568c12.384-12.384 28.736-18.752 45.28-18.752 12.288 0 24.672 3.552 35.456 10.752l83.328 55.552c13.344-6.496 27.104-12.256 41.28-17.184l19.616-98.048c5.984-29.952 32.256-51.488 62.752-51.488h87.040c30.496 0 56.8 21.568 62.752 51.488l19.68 98.048c14.176 4.928 27.936 10.752 41.248 17.184l83.328-55.552c10.816-7.2 23.2-10.752 35.424-10.752 16.576 0 32.928 6.368 45.312 18.752l61.568 61.568c21.568 21.568 24.928 55.36 8 80.736l-55.552 83.328c6.496 13.376 12.256 27.136 17.184 41.312l98.048 19.616c29.92 5.92 51.488 32.256 51.488 62.752v87.040c0 30.496-21.568 56.768-51.488 62.752zM861.888 384.8c-22.24-4.448-40.448-20.32-47.872-41.76-4.128-11.808-8.928-23.264-14.304-34.368-9.952-20.448-8.256-44.576 4.32-63.424l55.552-83.328-61.568-61.568-83.328 55.552c-10.688 7.136-23.072 10.752-35.488 10.752-9.504 0-19.072-2.112-27.872-6.368-11.136-5.376-22.56-10.24-34.432-14.368-21.376-7.424-37.248-25.632-41.696-47.872l-19.68-98.112h-87.040l-19.616 98.112c-4.448 22.24-20.32 40.448-41.728 47.872-11.808 4.128-23.296 8.928-34.4 14.304-8.832 4.32-18.368 6.432-27.904 6.432-12.448 0-24.8-3.616-35.488-10.752l-83.328-55.552-61.568 61.568 55.52 83.328c12.576 18.88 14.208 43.008 4.384 63.36-5.376 11.136-10.208 22.56-14.336 34.432-7.424 21.376-25.664 37.248-47.872 41.696l-98.080 19.68-0.064 87.072 98.112 19.616c22.208 4.448 40.448 20.32 47.872 41.728 4.128 11.808 8.896 23.296 14.304 34.4 9.92 20.416 8.256 44.544-4.352 63.392l-55.488 83.328 61.536 61.568 83.328-55.52c10.688-7.136 23.072-10.752 35.488-10.752 9.504 0 19.040 2.112 27.872 6.368 11.104 5.376 22.56 10.208 34.4 14.336 21.408 7.424 37.28 25.664 41.728 47.872l19.648 98.080 87.040 0.032 19.616-98.112c4.448-22.208 20.32-40.448 41.76-47.872 11.808-4.128 23.264-8.896 34.368-14.304 8.864-4.288 18.368-6.4 27.936-6.4 12.448 0 24.8 3.616 35.488 10.752l83.328 55.52 61.568-61.568-55.552-83.328c-12.576-18.88-14.176-42.976-4.384-63.36 5.376-11.104 10.24-22.56 14.368-34.4 7.424-21.408 25.632-37.28 47.872-41.728l98.048-19.648 0.096-87.040-98.112-19.648zM512 671.968c-123.68 0-224-100.32-224-224 0-123.712 100.32-224 224-224s224 100.32 224 224c0 123.68-100.32 224-224 224zM512 251.936c-108.224 0-196 87.808-196 196 0 108.224 87.776 196 196 196 108.192 0 196-87.776 196-196 0-108.192-87.808-196-196-196zM512 575.968c-70.72 0-128-57.28-128-128 0-70.688 57.28-128 128-128 70.688 0 128 57.312 128 128s-57.312 128-128 128zM512 351.936c-52.992 0-96 43.008-96 96s43.008 96 96 96 96-43.008 96-96c0-52.992-43.008-96-96-96z" />
<glyph unicode="&#xe66c;" d="M512 960c-215.808 0-448-65.056-448-208v-608c0-142.88 232.192-208 448-208 215.776 0 448 65.12 448 208v608c0 142.944-232.256 208-448 208zM896 144c0-79.488-171.936-144-384-144-212.096 0-384 64.512-384 144v119.552c66.112-68.128 225.6-103.552 384-103.552s317.888 35.424 384 103.552v-119.552zM896 336h-0.128c0-0.32 0.128-0.672 0.128-0.992 0-79.008-171.936-143.008-384-143.008s-384 64-384 143.008c0 0.32 0.128 0.672 0.128 0.992h-0.128v119.552c66.112-68.128 225.6-103.552 384-103.552s317.888 35.424 384 103.552v-119.552zM896 528h-0.128c0-0.32 0.128-0.672 0.128-0.992 0-79.008-171.936-143.008-384-143.008s-384 64-384 143.008c0 0.32 0.128 0.672 0.128 0.992h-0.128v109.952c83.872-63.904 237.6-93.952 384-93.952s300.128 30.048 384 93.952v-109.952zM512 608c-212.096 0-384 64.512-384 144 0 79.552 171.904 144 384 144 212.064 0 384-64.448 384-144 0-79.488-171.936-144-384-144zM768 128c0 17.673 14.327 32 32 32s32-14.327 32-32c0-17.673-14.327-32-32-32s-32 14.327-32 32zM768 320c0 17.673 14.327 32 32 32s32-14.327 32-32c0-17.673-14.327-32-32-32s-32 14.327-32 32zM768 512c0 17.673 14.327 32 32 32s32-14.327 32-32c0-17.673-14.327-32-32-32s-32 14.327-32 32z" />
<glyph unicode="&#xe66d;" d="M1000 753.984l-160 128c-11.36 9.088-25.504 14.016-40 14.016h-576c-14.528 0-28.64-4.928-40-14.016l-160-128c-20.928-16.768-29.184-44.8-20.704-70.24l64-192c6.304-18.912 21.088-33.824 39.968-40.288 6.72-2.304 13.76-3.456 20.736-3.456 11.136 0 22.176 2.912 32 8.576v-392.576c0-35.328 28.672-64 64-64h576c35.328 0 64 28.672 64 64v392.576c9.824-5.664 20.864-8.576 32-8.576 7.008 0 14.016 1.152 20.736 3.456 18.88 6.464 33.632 21.376 39.936 40.288l64 192c8.512 25.44 0.256 53.472-20.672 70.24zM632.128 832c-17.696-37.152-64.576-64-120.128-64s-102.464 26.848-120.128 64h240.256zM896 512l-96 64v-512h-576v512l-96-64-64 192 160 128h133.664c17.824-55.104 79.872-96 154.336-96 74.432 0 136.512 40.896 154.304 96h133.696l160-128-64-192z" />
<glyph unicode="&#xe66e;" d="M856.422 315.392c-43.213-69.837-180.992-120.883-344.422-120.883-163.328 0-301.21 51.046-344.371 120.883-9.165 14.797-14.029 6.861-14.029-0.461 0-7.373 0-102.502 0-102.502 0-99.277 160.461-202.189 358.4-202.189s358.4 102.912 358.4 202.189c0 0 0 95.13 0 102.502 0 7.322-4.915 15.258-13.978 0.461zM856.934 577.28c-42.445-61.747-180.838-107.008-344.934-107.008s-302.49 45.261-344.934 107.008c-8.806 12.749-13.466 5.837-13.466 0.051s0-120.627 0-120.627c0-90.266 160.461-163.379 358.4-163.379s358.4 73.114 358.4 163.379c0 0 0 114.842 0 120.627s-4.71 12.698-13.466-0.051zM512 911.36c-197.939 0-358.4-60.314-358.4-134.758v-64.461c0-78.95 160.461-142.95 358.4-142.95s358.4 64 358.4 142.95v64.41c0 74.496-160.461 134.81-358.4 134.81z" />
<glyph unicode="&#xe66f;" d="M976.384 614.4h-928.768c-47.104 0-49.51-22.938-46.899-50.995l42.24-461.21c2.56-28.058 9.216-50.995 56.269-50.995h825.6c48.026 0 53.709 22.938 56.269 50.995l42.24 461.21c2.509 28.058 0.205 50.995-46.95 50.995zM942.285 727.040c-5.632 22.528-33.536 40.96-61.901 40.96h-348.877c-28.416 0-68.045 16.23-88.166 36.147l-30.515 30.106c-20.070 19.917-59.75 36.147-88.115 36.147h-166.707c-28.365 0-54.17-22.886-57.293-50.893l-14.95-133.427h866.867l-10.342 40.96z" />
<glyph unicode="&#xe670;" d="M511.232 122.88v195.994l359.27-0.051v284.262h-359.27v195.635l-388.25-337.971z" />
<glyph unicode="&#xe671;" d="M849.92 460.032l-195.994 0.051 0.051 359.219h-284.262v-359.27l-195.635 0.051 337.92-388.301z" />
<glyph unicode="&#xe672;" d="M849.92 461.568l-195.994-0.051 0.051-359.219h-284.262v359.27l-195.635-0.051 337.971 388.301z" />
<glyph unicode="&#xe673;" d="M512.768 798.72v-195.994l-359.27 0.051v-284.262h359.27v-195.635l388.25 337.971z" />
<glyph unicode="&#xe674;" d="M597.333 853.334h-341.333c-47.147 0-84.907-38.187-84.907-85.333l-0.427-682.667c0-47.147 37.76-85.333 84.907-85.333h512.427c47.147 0 85.333 38.187 85.333 85.333v512l-256 256zM682.667 170.667h-341.333v85.333h341.333v-85.333zM682.667 341.334h-341.333v85.333h341.333v-85.333zM554.667 554.667v234.667l234.667-234.667h-234.667z" />
<glyph unicode="&#xe675;" d="M876.587 715.734l-59.093 71.68c-11.947 14.080-29.653 23.253-49.493 23.253h-512c-19.84 0-37.547-9.173-49.28-23.253l-59.093-71.68c-12.373-14.933-19.627-33.707-19.627-54.4v-533.333c0-47.147 38.187-85.333 85.333-85.333h597.333c47.147 0 85.333 38.187 85.333 85.333v533.333c0 20.693-7.253 39.467-19.413 54.4zM512 192l-234.667 234.667h149.333v85.333h170.667v-85.333h149.333l-234.667-234.667zM218.667 725.334l34.773 42.667h512l39.893-42.667h-586.667z" />
<glyph unicode="&#xe676;" d="M426.667 768h-256c-47.147 0-84.907-38.187-84.907-85.333l-0.427-512c0-47.147 38.187-85.333 85.333-85.333h682.667c47.147 0 85.333 38.187 85.333 85.333v426.667c0 47.147-38.187 85.333-85.333 85.333h-341.333l-85.333 85.333z" />
<glyph unicode="&#xe677;" d="M853.333 682.667h-341.333l-85.333 85.333h-256c-47.147 0-84.907-38.187-84.907-85.333l-0.427-512c0-47.147 38.187-85.333 85.333-85.333h682.667c47.147 0 85.333 38.187 85.333 85.333v426.667c0 47.147-38.187 85.333-85.333 85.333zM853.333 170.667h-682.667v426.667h682.667v-426.667z" />
<glyph unicode="&#xe678;" d="M853.333 682.667h-341.333l-85.333 85.333h-256c-47.147 0-84.907-38.187-84.907-85.333l-0.427-512c0-47.147 38.187-85.333 85.333-85.333h682.667c47.147 0 85.333 38.187 85.333 85.333v426.667c0 47.147-38.187 85.333-85.333 85.333zM640 554.667c47.147 0 85.333-38.187 85.333-85.333s-38.187-85.333-85.333-85.333-85.333 38.187-85.333 85.333 38.187 85.333 85.333 85.333zM810.667 213.334h-341.333v42.667c0 56.96 113.707 85.333 170.667 85.333s170.667-28.373 170.667-85.333v-42.667z" />
<glyph unicode="&#xe679;" d="M585.574 741.581c-21.402-20.89-230.502-240.435-230.502-240.435-11.418-11.162-17.101-25.754-17.101-40.346s5.683-29.184 17.101-40.346c0 0 209.101-219.546 230.502-240.384 21.402-20.89 59.904-22.323 82.739 0 22.784 22.272 24.576 53.35-0.051 80.64l-191.846 200.090 191.846 200.090c24.627 27.341 22.835 58.419 0.051 80.691-22.886 22.272-61.389 20.89-82.739 0z" />
<glyph unicode="&#xe67a;" d="M792.73 534.374c-20.838-21.402-240.384-230.554-240.384-230.554-11.162-11.418-25.754-17.101-40.346-17.101-14.643 0-29.235 5.683-40.346 17.101 0 0-219.546 209.152-240.435 230.554-20.838 21.402-22.272 59.853 0 82.739 22.323 22.835 53.402 24.627 80.691 0l200.090-191.898 200.038 191.846c27.341 24.627 58.47 22.835 80.691 0 22.323-22.835 20.941-61.338 0-82.688z" />
<glyph unicode="&#xe67b;" d="M792.73 387.226c-20.838 21.402-240.384 230.502-240.384 230.502-11.162 11.418-25.754 17.152-40.346 17.152-14.643 0-29.235-5.734-40.346-17.152 0 0-219.546-209.101-240.435-230.502-20.838-21.402-22.272-59.904 0-82.739 22.323-22.784 53.402-24.627 80.691 0l200.090 191.846 200.038-191.846c27.341-24.627 58.47-22.784 80.691 0 22.323 22.886 20.941 61.389 0 82.739z" />
<glyph unicode="&#xe67c;" d="M438.426 741.581c21.402-20.89 230.502-240.435 230.502-240.435 11.469-11.162 17.152-25.754 17.152-40.346s-5.683-29.184-17.152-40.346c0 0-209.101-219.546-230.502-240.384-21.402-20.89-59.853-22.323-82.739 0-22.835 22.272-24.627 53.35 0 80.64l191.898 200.090-191.846 200.090c-24.627 27.341-22.835 58.419 0 80.691s61.338 20.89 82.688 0z" />
<glyph unicode="&#xe67d;" d="M634.829 285.798c13.722-13.875 13.722-36.301 0-50.125-13.722-13.875-35.891-13.875-49.613 0l-196.096 200.038c-13.722 13.875-13.722 36.301 0 50.125l196.096 200.090c13.722 13.875 35.891 13.875 49.613 0s13.722-36.25 0-50.125l-160.768-175.002 160.768-175.002z" />
<glyph unicode="&#xe67e;" d="M687.002 583.629c13.875 13.722 36.301 13.722 50.125 0 13.875-13.722 13.875-35.891 0-49.613l-200.038-196.096c-13.875-13.722-36.301-13.722-50.125 0l-200.090 196.096c-13.824 13.722-13.824 35.891 0 49.613 13.875 13.722 36.25 13.722 50.125 0l175.002-160.768 175.002 160.768z" />
<glyph unicode="&#xe67f;" d="M336.947 337.971c-13.875-13.722-36.25-13.722-50.125 0-13.824 13.722-13.875 35.891 0 49.664l200.090 195.994c13.875 13.722 36.301 13.722 50.125 0l200.090-196.045c13.875-13.773 13.875-35.942 0-49.664s-36.25-13.722-50.125 0l-175.053 160.819-175.002-160.768z" />
<glyph unicode="&#xe680;" d="M389.171 285.798c-13.722-13.875-13.722-36.301 0-50.125 13.67-13.875 35.891-13.875 49.613 0l196.096 200.038c13.722 13.875 13.722 36.301 0 50.125l-196.096 200.090c-13.722 13.875-35.891 13.875-49.613 0s-13.722-36.25-0.051-50.074l160.819-175.053-160.768-175.002z" />
<glyph unicode="&#xe681;" d="M737.229 80.998c13.722-13.875 13.722-36.25 0-50.125s-35.891-13.875-49.613 0l-400.896 404.838c-13.722 13.875-13.722 36.301 0 50.125l400.896 404.89c13.722 13.875 35.891 13.875 49.613 0s13.722-36.25 0-50.125l-365.568-379.802 365.568-379.802z" />
<glyph unicode="&#xe682;" d="M132.198 686.029c-13.875 13.722-36.301 13.722-50.125 0-13.824-13.67-13.824-35.891 0-49.613l404.89-400.896c13.875-13.722 36.25-13.722 50.125 0l404.89 400.896c13.824 13.722 13.875 35.891 0 49.613s-36.352 13.722-50.125 0.051l-379.853-365.619-379.802 365.568z" />
<glyph unicode="&#xe683;" d="M891.802 235.571c13.875-13.722 36.301-13.722 50.125 0 13.875 13.722 13.875 35.891 0 49.613l-404.89 400.896c-13.824 13.722-36.25 13.722-50.074 0l-404.89-400.896c-13.824-13.722-13.875-35.891 0-49.613s36.25-13.722 50.125 0l379.802 365.619 379.802-365.619z" />
<glyph unicode="&#xe684;" d="M512 801.276l-344.834-737.276h689.668l-344.834 737.276zM512 960v0c22.070 0 44.14-14.882 60.884-44.648l437.072-871.112c33.49-59.532 5-108.24-63.302-108.24h-869.308c-68.304 0-96.79 48.708-63.304 108.24l437.074 871.112c16.744 29.766 38.814 44.648 60.884 44.648zM448 192c0 35.346 28.654 64 64 64s64-28.654 64-64c0-35.346-28.654-64-64-64s-64 28.654-64 64zM512 576c35.346 0 64-28.654 64-64l-20-192h-88l-20 192c0 35.346 28.654 64 64 64z" />
<glyph unicode="&#xe685;" d="M512 864c-111.118 0-215.584-43.272-294.156-121.844s-121.844-183.038-121.844-294.156c0-111.118 43.272-215.584 121.844-294.156s183.038-121.844 294.156-121.844c111.118 0 215.584 43.272 294.156 121.844s121.844 183.038 121.844 294.156c0 111.118-43.272 215.584-121.844 294.156s-183.038 121.844-294.156 121.844zM512 960v0c282.77 0 512-229.23 512-512s-229.23-512-512-512c-282.77 0-512 229.23-512 512s229.23 512 512 512zM448 256h128v-128h-128zM448 768h128v-384h-128z" />
<glyph unicode="&#xe686;" d="M448 256h128v-128h-128zM704 704c35.346 0 64-28.654 64-64v-192l-192-128h-128v64l192 128v64h-320v128h384zM512 864c-111.118 0-215.584-43.272-294.156-121.844s-121.844-183.038-121.844-294.156c0-111.118 43.272-215.584 121.844-294.156s183.038-121.844 294.156-121.844c111.118 0 215.584 43.272 294.156 121.844s121.844 183.038 121.844 294.156c0 111.118-43.272 215.584-121.844 294.156s-183.038 121.844-294.156 121.844zM512 960v0c282.77 0 512-229.23 512-512s-229.23-512-512-512c-282.77 0-512 229.23-512 512s229.23 512 512 512z" />
<glyph unicode="&#xe687;" d="M512 960c-282.77 0-512-229.23-512-512s229.23-512 512-512 512 229.23 512 512-229.23 512-512 512zM512 32c-229.75 0-416 186.25-416 416s186.25 416 416 416 416-186.25 416-416-186.25-416-416-416zM448 704h128v-128h-128zM640 192h-256v64h64v192h-64v64h192v-256h64z" />
<glyph unicode="&#xe688;" d="M512 960c-282.77 0-512-229.23-512-512s229.23-512 512-512 512 229.23 512 512-229.23 512-512 512zM448 768h128v-128h-128v128zM640 128h-256v64h64v256h-64v64h192v-320h64v-64z" />
<glyph unicode="&#xe689;" d="M0 448c0-282.77 229.23-512 512-512s512 229.23 512 512-229.228 512-512 512c-282.77 0-512-229.23-512-512zM896 448c0-73.236-20.512-141.68-56.088-199.912l-527.822 527.824c58.23 35.578 126.674 56.088 199.91 56.088 212.076 0 384-171.922 384-384zM128 448c0 73.236 20.512 141.678 56.090 199.912l527.822-527.824c-58.234-35.578-126.676-56.088-199.912-56.088-212.076 0-384 171.922-384 384z" />
<glyph unicode="&#xe68a;" d="M512 960c-282.77 0-512-229.23-512-512s229.23-512 512-512 512 229.23 512 512-229.23 512-512 512zM768 613.49l-165.488-165.49 165.488-165.488v-90.512h-90.512l-165.488 165.488-165.49-165.488h-90.51v90.512l165.49 165.488-165.49 165.49v90.51h90.51l165.49-165.49 165.488 165.49h90.512v-90.51z" />
<glyph unicode="&#xe68b;" d="M512 960c-282.77 0-512-229.23-512-512s229.23-512 512-512 512 229.23 512 512-229.23 512-512 512zM416 128l-212 276 94 98 118-150 370 302 46-46-416-480z" />
<glyph unicode="&#xe68c;" d="M1024 224l-288 736h-448l-288-288v-448l288-288h448l288 288v448l-288 288zM576 128h-128v128h128v-128zM576 384h-128v384h128v-384z" />
<glyph unicode="&#xe68d;" d="M1014.662 137.34c-0.004 0.004-0.008 0.008-0.012 0.010l-310.644 310.65 310.644 310.65c0.004 0.004 0.008 0.006 0.012 0.010 3.344 3.346 5.762 7.254 7.312 11.416 4.246 11.376 1.824 24.682-7.324 33.83l-146.746 146.746c-9.148 9.146-22.45 11.566-33.828 7.32-4.16-1.55-8.070-3.968-11.418-7.31 0-0.004-0.004-0.006-0.008-0.010l-310.648-310.652-310.648 310.65c-0.004 0.004-0.006 0.006-0.010 0.010-3.346 3.342-7.254 5.76-11.414 7.31-11.38 4.248-24.682 1.826-33.83-7.32l-146.748-146.748c-9.148-9.148-11.568-22.452-7.322-33.828 1.552-4.16 3.97-8.072 7.312-11.416 0.004-0.002 0.006-0.006 0.010-0.010l310.65-310.648-310.65-310.652c-0.002-0.004-0.006-0.006-0.008-0.010-3.342-3.346-5.76-7.254-7.314-11.414-4.248-11.376-1.826-24.682 7.322-33.83l146.748-146.746c9.15-9.148 22.452-11.568 33.83-7.322 4.16 1.552 8.070 3.97 11.416 7.312 0.002 0.004 0.006 0.006 0.010 0.010l310.648 310.65 310.648-310.65c0.004-0.002 0.008-0.006 0.012-0.008 3.348-3.344 7.254-5.762 11.414-7.314 11.378-4.246 24.684-1.826 33.828 7.322l146.746 146.748c9.148 9.148 11.57 22.454 7.324 33.83-1.552 4.16-3.97 8.068-7.314 11.414z" />
<glyph unicode="&#xe68e;" d="M864 832l-480-480-224 224-160-160 384-384 640 640z" />
<glyph unicode="&#xe68f;" d="M397.434 42.304l-397.868 391.6 197.378 194.27 200.49-197.332 429.62 422.852 197.378-194.27-626.998-617.12zM107.912 433.904l289.524-284.962 518.656 510.482-89.036 87.632-429.62-422.852-200.49 197.334-89.034-87.634z" />
<glyph unicode="&#xe690;" d="M384 448h-320v128h320v128l192-192-192-192zM1024 960v-832l-384-192v192h-384v256h64v-192h320v576l256 128h-576v-256h-64v320z" />
<glyph unicode="&#xe691;" d="M768 320v128h-320v128h320v128l192-192zM704 384v-256h-320v-192l-384 192v832h704v-320h-64v256h-512l256-128v-576h256v192z" />
<glyph unicode="&#xe692;" d="M575.87-64h-191.87v512h-128v176.45l128 0.058-0.208 103.952c0 143.952 39.034 231.54 208.598 231.54h141.176v-176.484h-88.23c-66.032 0-69.206-24.656-69.206-70.684l-0.262-88.324h158.69l-18.704-176.45-139.854-0.058-0.13-512z" />
<glyph unicode="&#xe693;" d="M853.344 960h-682.66c-93.872 0-170.684-76.814-170.684-170.688v-682.626c0-93.938 76.812-170.686 170.684-170.686l682.66 0.002c93.876 0 170.656 76.746 170.656 170.688v682.622c0 93.874-76.782 170.688-170.656 170.688zM870.592 448h-166.592v-448h-192v448h-92.526v146.564h92.526v95.186c0 129.342 55.792 206.25 207.87 206.25h175.244v-158.57h-143.13c-42.482 0.070-47.752-22.152-47.752-63.512l-0.232-79.354h192l-25.408-146.564z" />
<glyph unicode="&#xe694;" d="M512 960c282.77 0 512-229.23 512-512 0-261.094-195.438-476.53-448-508.026v380.026h176l16 128h-192v64c0 35.346 28.654 64 64 64h128v128h-128c-106.040 0-192-85.96-192-192v-64h-96v-128h96v-380.026c-252.562 31.496-448 246.932-448 508.026 0 282.77 229.23 512 512 512z" />
<glyph unicode="&#xe695;" d="M1024 765.582c-37.676-16.708-78.164-28.002-120.66-33.080 43.372 26 76.686 67.17 92.372 116.23-40.596-24.078-85.556-41.56-133.41-50.98-38.32 40.83-92.922 66.34-153.346 66.34-116.022 0-210.088-94.058-210.088-210.078 0-16.466 1.858-32.5 5.44-47.878-174.6 8.764-329.402 92.4-433.018 219.506-18.084-31.028-28.446-67.116-28.446-105.618 0-72.888 37.088-137.192 93.46-174.866-34.438 1.092-66.832 10.542-95.154 26.278-0.020-0.876-0.020-1.756-0.020-2.642 0-101.788 72.418-186.696 168.522-206-17.626-4.8-36.188-7.372-55.348-7.372-13.538 0-26.698 1.32-39.528 3.772 26.736-83.46 104.32-144.206 196.252-145.896-71.9-56.35-162.486-89.934-260.916-89.934-16.958 0-33.68 0.994-50.116 2.94 92.972-59.61 203.402-94.394 322.042-94.394 386.422 0 597.736 320.124 597.736 597.744 0 9.108-0.206 18.168-0.61 27.18 41.056 29.62 76.672 66.62 104.836 108.748z" />
<glyph unicode="&#xe696;" d="M853.342 960h-682.656c-93.874 0-170.686-76.81-170.686-170.69v-682.622c0-93.938 76.812-170.688 170.686-170.688h682.656c93.876 0 170.658 76.75 170.658 170.69v682.62c0 93.88-76.782 170.69-170.658 170.69zM838.052 618.166c0.328-7.342 0.49-14.728 0.49-22.148 0-226.214-169.216-487.068-478.658-487.068-95.004 0-183.434 28.348-257.886 76.918 13.16-1.588 26.552-2.394 40.13-2.394 78.822 0 151.358 27.37 208.934 73.282-73.616 1.38-135.744 50.876-157.154 118.882 10.274-2 20.812-3.074 31.652-3.074 15.344 0 30.206 2.096 44.32 6.008-76.96 15.732-134.95 84.916-134.95 167.856 0 0.722 0 1.438 0.016 2.152 22.68-12.82 48.624-20.52 76.2-21.41-45.142 30.698-74.842 83.092-74.842 142.488 0 31.37 8.294 60.778 22.778 86.058 82.974-103.57 206.936-171.72 346.754-178.862-2.87 12.532-4.358 25.596-4.358 39.014 0 94.538 75.326 171.18 168.23 171.18 48.39 0 92.118-20.786 122.802-54.058 38.32 7.676 74.324 21.92 106.832 41.542-12.562-39.976-39.234-73.522-73.966-94.71 34.026 4.138 66.452 13.34 96.62 26.954-22.546-34.324-51.070-64.476-83.944-88.61z" />
<glyph unicode="&#xe697;" d="M512 960c-282.77 0-512-229.23-512-512s229.23-512 512-512 512 229.23 512 512-229.23 512-512 512zM806.242 598.912c0.292-6.508 0.442-13.056 0.442-19.638 0-200.622-152.708-431.964-431.958-431.964-85.736 0-165.536 25.136-232.726 68.214 11.876-1.408 23.962-2.126 36.216-2.126 71.13 0 136.59 24.276 188.55 64.994-66.434 1.22-122.5 45.122-141.824 105.432 9.274-1.768 18.784-2.722 28.566-2.722 13.846 0 27.258 1.856 39.998 5.324-69.452 13.952-121.786 75.312-121.786 148.868 0 0.64 0 1.278 0.016 1.91 20.47-11.37 43.878-18.2 68.764-18.988-40.74 27.222-67.54 73.692-67.54 126.368 0 27.822 7.488 53.904 20.556 76.324 74.878-91.854 186.748-152.292 312.924-158.628-2.588 11.118-3.93 22.702-3.93 34.604 0 83.84 67.98 151.812 151.818 151.812 43.666 0 83.124-18.436 110.818-47.94 34.58 6.808 67.074 19.442 96.412 36.84-11.336-35.454-35.41-65.206-66.752-83.994 30.71 3.668 59.968 11.832 87.194 23.904-20.35-30.448-46.090-57.186-75.758-78.594z" />
<glyph unicode="&#xe698;" d="M903.432 760.57l-142.864 142.862c-31.112 31.112-92.568 56.568-136.568 56.568h-480c-44 0-80-36-80-80v-864c0-44 36-80 80-80h736c44 0 80 36 80 80v608c0 44-25.456 105.458-56.568 136.57zM858.178 715.314c3.13-3.13 6.25-6.974 9.28-11.314h-163.458v163.456c4.34-3.030 8.184-6.15 11.314-9.28l142.864-142.862zM896 16c0-8.672-7.328-16-16-16h-736c-8.672 0-16 7.328-16 16v864c0 8.672 7.328 16 16 16h480c4.832 0 10.254-0.61 16-1.704v-254.296h254.296c1.094-5.746 1.704-11.166 1.704-16v-608z" />
<glyph unicode="&#xe699;" d="M0 640h1024l-64-640h-896l-64 640zM928 768l32-64h-896l64 128h352l32-64h416z" />
<glyph unicode="&#xe69a;" d="M0 544v-192c0-17.672 14.328-32 32-32h960c17.672 0 32 14.328 32 32v192c0 17.672-14.328 32-32 32h-960c-17.672 0-32-14.328-32-32z" />
<glyph unicode="&#xe69b;" d="M992 576h-352v352c0 17.672-14.328 32-32 32h-192c-17.672 0-32-14.328-32-32v-352h-352c-17.672 0-32-14.328-32-32v-192c0-17.672 14.328-32 32-32h352v-352c0-17.672 14.328-32 32-32h192c17.672 0 32 14.328 32 32v352h352c17.672 0 32 14.328 32 32v192c0 17.672-14.328 32-32 32z" />
<glyph unicode="&#xe69c;" d="M286.704 80.998c-13.722-13.875-13.722-36.25 0-50.125s35.891-13.875 49.613 0l400.896 404.838c13.722 13.875 13.722 36.301 0 50.125l-400.896 404.89c-13.722 13.875-35.891 13.875-49.613 0s-13.722-36.25 0-50.125l365.568-379.802-365.568-379.802z" />
<glyph unicode="&#xf078;" d="M128 768l-128-128 192-192-192-192 128-128 320 320-320 320z" horiz-adv-x="448" />
<glyph unicode="&#xf099;" d="M832 896h-768c-32 0-64-32-64-64v-768c0-32 32-64 64-64h768c32 0 64 32 64 64v768c0 32-32 64-64 64zM768 160c0-16-17-32-32-32h-576c-18 0-32 12-32 32v576c0 16 16 32 32 32h576c15 0 32-16 32-32v-576zM256 354v-98h98l286 286v98h-98l-286-286z" horiz-adv-x="896" />
<glyph unicode="&#xf0a2;" d="M320 704l-320-320 128-128 192 192 192-192 128 128-320 320z" horiz-adv-x="640" />
<glyph unicode="&#xf0a3;" d="M512 640l-192-192-192 192-128-128 320-320 320 320-128 128z" horiz-adv-x="640" />
<glyph unicode="&#xf0a4;" d="M448 640l-128 128-320-320 320-320 128 128-192 192 192 192z" horiz-adv-x="448" />
</font>
</defs>
</svg>
